ToneOZQSPinyinKaiTraditional-Regular.ufo
<glyph name="exclam" format="2">
  <unicode hex="0021" />
  <advance width="358" />
  <outline>
    <contour>
      <point x="200" y="103" />
      <point x="233" y="61" />
      <point x="233" y="17" />
      <point x="208" y="-9" />
      <point x="159" y="-9" />
      <point x="126" y="30" />
      <point x="126" y="74" />
      <point x="153" y="103" />
    </contour>
    <contour>
      <point x="140" y="712" type="line" />
      <point x="140" y="729" />
      <point x="185" y="729" />
      <point x="227" y="711" />
      <point x="227" y="697" type="qcurve" />
      <point x="227" y="696" type="line" />
      <point x="226" y="680" />
      <point x="222" y="646" />
      <point x="221" y="624" type="qcurve" />
      <point x="209" y="228" type="line" />
      <point x="209" y="177" type="line" />
      <point x="209" y="169" />
      <point x="179" y="169" />
      <point x="150" y="181" />
      <point x="150" y="191" type="qcurve" />
      <point x="150" y="193" type="line" />
      <point x="152" y="209" />
      <point x="152" y="232" type="qcurve" />
      <point x="145" y="629" type="line" />
      <point x="145" y="679" />
      <point x="140" y="710" type="qcurve" />
    </contour>
  </outline>
</glyph>
<glyph name="dollar" format="2">
  <unicode hex="0024" />
  <advance width="614" />
  <outline>
    <contour>
      <point x="344" y="349" type="qcurve" />
      <point x="344" y="50" type="line" />
      <point x="412" y="60" />
      <point x="492" y="136" />
      <point x="492" y="253" />
      <point x="431" y="324" />
    </contour>
    <contour>
      <point x="276" y="662" type="line" />
      <point x="214" y="652" />
      <point x="143" y="579" />
      <point x="143" y="537" type="qcurve" />
      <point x="143" y="510" />
      <point x="164" y="475" />
      <point x="215" y="451" />
      <point x="260" y="438" type="qcurve" />
      <point x="276" y="434" type="line" />
    </contour>
    <contour>
      <point x="274" y="-100" type="qcurve" />
      <point x="276" y="-15" type="line" />
      <point x="135" y="-9" />
      <point x="42" y="94" type="qcurve" />
      <point x="36" y="100" />
      <point x="36" y="129" />
      <point x="62" y="163" />
      <point x="82" y="163" />
      <point x="86" y="156" type="qcurve" />
      <point x="129" y="90" />
      <point x="201" y="65" type="qcurve" />
      <point x="248" y="49" />
      <point x="276" y="48" type="qcurve" />
      <point x="276" y="368" type="line" />
      <point x="232" y="379" type="line" />
      <point x="156" y="399" />
      <point x="70" y="471" />
      <point x="70" y="539" type="qcurve" />
      <point x="70" y="584" />
      <point x="122" y="664" />
      <point x="215" y="719" />
      <point x="275" y="726" type="qcurve" />
      <point x="273" y="757" />
      <point x="273" y="779" type="qcurve" />
      <point x="273" y="788" />
      <point x="311" y="788" />
      <point x="346" y="776" />
      <point x="346" y="765" type="qcurve" />
      <point x="345" y="727" type="line" />
      <point x="408" y="719" />
      <point x="489" y="680" />
      <point x="527" y="646" />
      <point x="527" y="609" />
      <point x="513" y="575" />
      <point x="502" y="575" type="qcurve" />
      <point x="496" y="575" />
      <point x="477" y="594" type="qcurve" />
      <point x="437" y="646" />
      <point x="344" y="663" type="qcurve" />
      <point x="344" y="417" type="line" />
      <point x="370" y="410" type="line" />
      <point x="565" y="360" />
      <point x="564" y="197" type="qcurve" />
      <point x="564" y="144" />
      <point x="513" y="53" />
      <point x="415" y="-6" />
      <point x="344" y="-14" type="qcurve" />
      <point x="347" y="-42" />
      <point x="347" y="-117" type="qcurve" />
      <point x="347" y="-126" />
      <point x="310" y="-126" />
      <point x="274" y="-111" />
    </contour>
  </outline>
</glyph>
<glyph name="ampersand" format="2">
  <unicode hex="0026" />
  <advance width="716" />
  <outline>
    <contour>
      <point x="457" y="125" type="qcurve" />
      <point x="379" y="207" />
      <point x="251" y="359" type="qcurve" />
      <point x="197" y="322" />
      <point x="121" y="225" />
      <point x="121" y="106" />
      <point x="197" y="40" />
      <point x="269" y="40" type="qcurve" />
      <point x="313" y="40" />
      <point x="413" y="82" />
    </contour>
    <contour>
      <point x="384" y="602" type="qcurve" />
      <point x="384" y="676" />
      <point x="322" y="676" type="qcurve" />
      <point x="263" y="676" />
      <point x="231" y="624" type="qcurve" />
      <point x="217" y="599" />
      <point x="217" y="569" type="qcurve" />
      <point x="217" y="504" />
      <point x="263" y="445" type="qcurve" />
      <point x="317" y="480" />
      <point x="384" y="565" />
    </contour>
    <contour>
      <point x="453" y="605" type="qcurve" />
      <point x="453" y="503" />
      <point x="302" y="396" type="qcurve" />
      <point x="411" y="263" />
      <point x="496" y="175" type="qcurve" />
      <point x="554" y="255" />
      <point x="584" y="373" type="qcurve" />
      <point x="589" y="391" />
      <point x="596" y="414" />
      <point x="605" y="414" type="qcurve" />
      <point x="610" y="414" />
      <point x="635" y="402" />
      <point x="656" y="382" />
      <point x="656" y="350" />
      <point x="585" y="191" />
      <point x="541" y="129" type="qcurve" />
      <point x="626" y="41" />
      <point x="675" y="24" type="qcurve" />
      <point x="721" y="5" />
      <point x="721" y="-6" type="qcurve" />
      <point x="721" y="-14" />
      <point x="644" y="-14" />
      <point x="584" y="5" />
      <point x="534" y="48" />
      <point x="500" y="81" type="qcurve" />
      <point x="452" y="28" />
      <point x="328" y="-17" />
      <point x="269" y="-17" type="qcurve" />
      <point x="153" y="-17" />
      <point x="53" y="78" />
      <point x="53" y="238" />
      <point x="141" y="356" />
      <point x="213" y="408" type="qcurve" />
      <point x="150" y="493" />
      <point x="150" y="571" type="qcurve" />
      <point x="150" y="617" />
      <point x="195" y="689" />
      <point x="269" y="729" />
      <point x="379" y="729" />
      <point x="453" y="666" />
    </contour>
  </outline>
</glyph>
<glyph name="asterisk" format="2">
  <unicode hex="002A" />
  <advance width="512" />
  <outline>
    <contour>
      <point x="289" y="707" type="qcurve" />
      <point x="288" y="692" type="line" />
      <point x="286" y="669" />
      <point x="281" y="618" />
      <point x="279" y="592" type="qcurve" />
      <point x="349" y="624" />
      <point x="387" y="648" />
      <point x="412" y="648" />
      <point x="429" y="614" />
      <point x="429" y="598" type="qcurve" />
      <point x="429" y="578" />
      <point x="398" y="571" type="qcurve" />
      <point x="294" y="550" type="line" />
      <point x="339" y="492" />
      <point x="353" y="477" type="qcurve" />
      <point x="373" y="457" type="line" />
      <point x="379" y="452" />
      <point x="379" y="434" />
      <point x="349" y="402" />
      <point x="317" y="402" />
      <point x="306" y="420" />
      <point x="296" y="444" />
      <point x="269" y="495" />
      <point x="257" y="520" type="qcurve" />
      <point x="225" y="467" />
      <point x="207" y="418" />
      <point x="196" y="400" />
      <point x="168" y="400" />
      <point x="134" y="427" />
      <point x="134" y="450" />
      <point x="145" y="463" type="qcurve" />
      <point x="190" y="515" />
      <point x="214" y="546" type="qcurve" />
      <point x="161" y="552" />
      <point x="110" y="555" />
      <point x="86" y="561" />
      <point x="86" y="596" />
      <point x="99" y="632" />
      <point x="115" y="632" type="qcurve" />
      <point x="120" y="632" />
      <point x="194" y="601" />
      <point x="230" y="589" type="qcurve" />
      <point x="213" y="708" type="line" />
      <point x="213" y="732" />
      <point x="252" y="731" type="qcurve" />
      <point x="255" y="731" type="line" />
      <point x="277" y="731" />
      <point x="289" y="717" />
    </contour>
  </outline>
</glyph>
<glyph name="plus" format="2">
  <unicode hex="002B" />
  <advance width="614" />
  <outline>
    <contour>
      <point x="338" y="17" type="line" />
      <point x="338" y="-3" />
      <point x="310" y="-3" type="qcurve" />
      <point x="297" y="-3" />
      <point x="274" y="10" />
      <point x="274" y="23" type="qcurve" />
      <point x="274" y="24" type="line" />
      <point x="277" y="55" />
      <point x="278" y="92" type="qcurve" />
      <point x="278" y="227" type="line" />
      <point x="152" y="227" type="line" />
      <point x="97" y="227" />
      <point x="78" y="224" type="qcurve" />
      <point x="76" y="224" type="line" />
      <point x="66" y="224" />
      <point x="52" y="250" />
      <point x="52" y="263" type="qcurve" />
      <point x="52" y="289" />
      <point x="73" y="289" type="qcurve" />
      <point x="102" y="287" />
      <point x="153" y="287" type="qcurve" />
      <point x="278" y="287" type="line" />
      <point x="278" y="407" type="line" />
      <point x="278" y="458" />
      <point x="275" y="486" type="qcurve" />
      <point x="275" y="506" />
      <point x="301" y="507" type="qcurve" />
      <point x="314" y="507" />
      <point x="340" y="494" />
      <point x="340" y="483" type="qcurve" />
      <point x="340" y="481" type="line" />
      <point x="337" y="444" />
      <point x="337" y="408" type="qcurve" />
      <point x="337" y="287" type="line" />
      <point x="466" y="287" type="line" />
      <point x="473" y="287" />
      <point x="535" y="290" type="qcurve" />
      <point x="536" y="290" type="line" />
      <point x="548" y="290" />
      <point x="561" y="266" />
      <point x="561" y="253" type="qcurve" />
      <point x="561" y="226" />
      <point x="541" y="226" type="qcurve" />
      <point x="465" y="227" type="line" />
      <point x="337" y="227" type="line" />
      <point x="337" y="93" type="line" />
    </contour>
  </outline>
</glyph>
<glyph name="comma" format="2">
  <unicode hex="002C" />
  <advance width="358" />
  <outline>
    <contour>
      <point x="117" y="-106" type="qcurve" />
      <point x="104" y="-106" />
      <point x="103" y="-92" type="qcurve" />
      <point x="103" y="-82" />
      <point x="127" y="-67" />
      <point x="162" y="-25" />
      <point x="168" y="-8" type="qcurve" />
      <point x="153" y="-2" />
      <point x="146" y="1" type="qcurve" />
      <point x="119" y="25" />
      <point x="120" y="77" />
      <point x="156" y="104" />
      <point x="202" y="104" />
      <point x="233" y="66" />
      <point x="237" y="39" type="qcurve" />
      <point x="237" y="31" type="line" />
      <point x="237" y="-14" />
      <point x="148" y="-106" />
    </contour>
  </outline>
</glyph>
<glyph name="slash" format="2">
  <unicode hex="002F" />
  <advance width="358" />
  <outline>
    <contour>
      <point x="259" y="676" type="line" />
      <point x="274" y="719" />
      <point x="284" y="756" type="qcurve" />
      <point x="287" y="769" />
      <point x="306" y="769" />
      <point x="317" y="762" type="qcurve" />
      <point x="343" y="743" />
      <point x="343" y="726" type="qcurve" />
      <point x="343" y="723" />
      <point x="328" y="692" />
      <point x="313" y="655" type="qcurve" />
      <point x="92" y="48" type="line" />
      <point x="75" y="0" />
      <point x="66" y="-30" type="qcurve" />
      <point x="62" y="-43" />
      <point x="35" y="-43" />
      <point x="8" y="-19" />
      <point x="8" y="3" />
      <point x="11" y="9" type="qcurve" />
      <point x="29" y="43" />
      <point x="40" y="72" type="qcurve" />
    </contour>
  </outline>
</glyph>
<glyph name="three" format="2">
  <unicode hex="0033" />
  <advance width="614" />
  <outline>
    <contour>
      <point x="323" y="360" type="qcurve" />
      <point x="285" y="360" />
      <point x="239" y="351" type="qcurve" />
      <point x="225" y="351" />
      <point x="204" y="384" />
      <point x="204" y="414" />
      <point x="216" y="415" type="qcurve" />
      <point x="352" y="428" />
      <point x="415" y="493" type="qcurve" />
      <point x="446" y="525" />
      <point x="445" y="564" type="qcurve" />
      <point x="445" y="666" />
      <point x="326" y="667" type="qcurve" />
      <point x="231" y="667" />
      <point x="154" y="584" type="qcurve" />
      <point x="145" y="571" />
      <point x="132" y="570" type="qcurve" />
      <point x="130" y="570" />
      <point x="97" y="592" />
      <point x="97" y="629" />
      <point x="109" y="638" type="qcurve" />
      <point x="197" y="730" />
      <point x="324" y="730" type="qcurve" />
      <point x="411" y="730" />
      <point x="517" y="646" />
      <point x="517" y="509" />
      <point x="445" y="421" />
      <point x="382" y="401" type="qcurve" />
      <point x="429" y="401" />
      <point x="505" y="357" />
      <point x="550" y="278" />
      <point x="550" y="159" />
      <point x="493" y="48" />
      <point x="373" y="-18" />
      <point x="211" y="-18" />
      <point x="111" y="24" />
      <point x="69" y="65" type="qcurve" />
      <point x="61" y="73" />
      <point x="60" y="104" />
      <point x="82" y="140" />
      <point x="99" y="140" />
      <point x="105" y="134" type="qcurve" />
      <point x="138" y="93" />
      <point x="219" y="46" />
      <point x="349" y="46" />
      <point x="437" y="95" />
      <point x="477" y="176" />
      <point x="477" y="222" type="qcurve" />
      <point x="477" y="284" />
      <point x="391" y="360" />
    </contour>
  </outline>
</glyph>
<glyph name="five" format="2">
  <unicode hex="0035" />
  <advance width="614" />
  <outline>
    <contour>
      <point x="169" y="402" type="line" />
      <point x="232" y="452" />
      <point x="321" y="453" type="qcurve" />
      <point x="330" y="453" type="line" />
      <point x="387" y="452" />
      <point x="487" y="398" />
      <point x="550" y="300" />
      <point x="550" y="164" />
      <point x="495" y="50" />
      <point x="378" y="-19" />
      <point x="218" y="-19" />
      <point x="112" y="35" />
      <point x="74" y="76" type="qcurve" />
      <point x="67" y="83" />
      <point x="67" y="117" />
      <point x="88" y="155" />
      <point x="108" y="155" />
      <point x="112" y="147" type="qcurve" />
      <point x="139" y="108" />
      <point x="225" y="47" />
      <point x="285" y="46" type="qcurve" />
      <point x="287" y="46" type="line" />
      <point x="353" y="46" />
      <point x="437" y="96" />
      <point x="479" y="180" />
      <point x="479" y="228" type="qcurve" />
      <point x="479" y="306" />
      <point x="387" y="390" />
      <point x="321" y="391" type="qcurve" />
      <point x="316" y="391" type="line" />
      <point x="251" y="391" />
      <point x="176" y="345" />
      <point x="141" y="313" type="qcurve" />
      <point x="138" y="310" />
      <point x="120" y="310" />
      <point x="93" y="339" />
      <point x="93" y="367" />
      <point x="104" y="406" type="qcurve" />
      <point x="143" y="651" type="line" />
      <point x="145" y="662" />
      <point x="145" y="674" type="qcurve" />
      <point x="145" y="695" type="line" />
      <point x="145" y="708" />
      <point x="181" y="709" />
      <point x="204" y="697" type="qcurve" />
      <point x="417" y="713" type="line" />
      <point x="467" y="716" />
      <point x="485" y="719" type="qcurve" />
      <point x="487" y="719" type="line" />
      <point x="498" y="719" />
      <point x="518" y="683" />
      <point x="518" y="652" />
      <point x="506" y="652" type="qcurve" />
      <point x="493" y="651" />
      <point x="447" y="650" />
      <point x="425" y="648" type="qcurve" />
      <point x="208" y="632" type="line" />
    </contour>
  </outline>
</glyph>
<glyph name="nine" format="2">
  <unicode hex="0039" />
  <advance width="614" />
  <outline>
    <contour>
      <point x="474" y="587" type="qcurve" />
      <point x="462" y="581" />
      <point x="460" y="581" type="qcurve" />
      <point x="450" y="581" />
      <point x="438" y="607" />
      <point x="424" y="625" type="qcurve" />
      <point x="389" y="666" />
      <point x="326" y="666" type="qcurve" />
      <point x="246" y="666" />
      <point x="186" y="596" type="qcurve" />
      <point x="131" y="528" />
      <point x="131" y="464" type="qcurve" />
      <point x="131" y="333" />
      <point x="232" y="333" type="qcurve" />
      <point x="320" y="333" />
      <point x="383" y="400" type="qcurve" />
      <point x="426" y="446" />
      <point x="453" y="514" type="qcurve" />
      <point x="465" y="545" />
      <point x="471" y="577" />
    </contour>
    <contour>
      <point x="386" y="-13" type="line" />
      <point x="359" y="-13" />
      <point x="359" y="9" type="qcurve" />
      <point x="359" y="17" />
      <point x="380" y="116" />
      <point x="403" y="230" />
      <point x="419" y="304" />
      <point x="427" y="350" />
      <point x="430" y="366" type="qcurve" />
      <point x="394" y="322" />
      <point x="288" y="266" />
      <point x="186" y="266" />
      <point x="108" y="310" />
      <point x="60" y="394" />
      <point x="60" y="450" type="qcurve" />
      <point x="60" y="558" />
      <point x="216" y="729" />
      <point x="321" y="729" type="qcurve" />
      <point x="405" y="729" />
      <point x="457" y="680" type="qcurve" />
      <point x="477" y="660" />
      <point x="485" y="644" type="qcurve" />
      <point x="490" y="667" />
      <point x="494" y="699" />
      <point x="508" y="699" type="qcurve" />
      <point x="510" y="699" type="line" />
      <point x="532" y="697" />
      <point x="564" y="670" />
      <point x="564" y="662" type="qcurve" />
      <point x="564" y="658" type="line" />
      <point x="528" y="568" />
      <point x="463" y="182" type="qcurve" />
      <point x="445" y="70" />
      <point x="437" y="9" type="qcurve" />
      <point x="435" y="-11" />
      <point x="390" y="-13" type="qcurve" />
    </contour>
  </outline>
</glyph>
<glyph name="semicolon" format="2">
  <unicode hex="003B" />
  <advance width="358" />
  <outline>
    <contour>
      <point x="123" y="-102" type="qcurve" />
      <point x="109" y="-102" />
      <point x="109" y="-88" type="qcurve" />
      <point x="109" y="-80" />
      <point x="115" y="-76" type="qcurve" />
      <point x="134" y="-63" />
      <point x="169" y="-22" />
      <point x="173" y="-3" type="qcurve" />
      <point x="171" y="-2" />
      <point x="153" y="2" />
      <point x="147" y="6" type="qcurve" />
      <point x="124" y="26" />
      <point x="125" y="75" />
      <point x="158" y="99" />
      <point x="200" y="99" />
      <point x="228" y="62" />
      <point x="232" y="29" type="qcurve" />
      <point x="232" y="-6" />
      <point x="173" y="-82" />
      <point x="131" y="-100" type="qcurve" />
      <point x="127" y="-102" />
    </contour>
    <contour>
      <point x="202" y="483" />
      <point x="236" y="441" />
      <point x="236" y="399" />
      <point x="210" y="373" />
      <point x="161" y="373" />
      <point x="128" y="415" />
      <point x="128" y="459" />
      <point x="159" y="483" />
    </contour>
  </outline>
</glyph>
<glyph name="less" format="2">
  <unicode hex="003C" />
  <advance width="614" />
  <outline>
    <contour>
      <point x="169" y="242" type="qcurve" />
      <point x="334" y="161" />
      <point x="471" y="78" type="qcurve" />
      <point x="488" y="68" />
      <point x="504" y="59" type="qcurve" />
      <point x="514" y="52" />
      <point x="514" y="12" />
      <point x="504" y="-16" />
      <point x="495" y="-16" type="qcurve" />
      <point x="493" y="-16" />
      <point x="487" y="-13" type="qcurve" />
      <point x="390" y="61" />
      <point x="207" y="160" type="qcurve" />
      <point x="142" y="195" />
      <point x="133" y="196" type="qcurve" />
      <point x="108" y="201" />
      <point x="95" y="242" />
      <point x="95" y="265" />
      <point x="98" y="271" type="qcurve" />
      <point x="103" y="279" />
      <point x="136" y="290" />
      <point x="182" y="315" type="qcurve" />
      <point x="244" y="347" />
      <point x="435" y="459" />
      <point x="487" y="501" type="qcurve" />
      <point x="492" y="504" />
      <point x="496" y="504" type="qcurve" />
      <point x="506" y="504" />
      <point x="519" y="472" />
      <point x="519" y="436" />
      <point x="510" y="431" type="qcurve" />
      <point x="475" y="412" />
      <point x="296" y="304" />
    </contour>
  </outline>
</glyph>
<glyph name="greater" format="2">
  <unicode hex="003E" />
  <advance width="614" />
  <outline>
    <contour>
      <point x="450" y="247" type="qcurve" />
      <point x="242" y="353" />
      <point x="130" y="421" />
      <point x="115" y="429" type="qcurve" />
      <point x="105" y="436" />
      <point x="104" y="476" />
      <point x="115" y="505" />
      <point x="124" y="505" type="qcurve" />
      <point x="127" y="505" />
      <point x="207" y="444" />
      <point x="467" y="296" />
      <point x="495" y="291" />
      <point x="512" y="281" />
      <point x="523" y="248" />
      <point x="523" y="223" />
      <point x="516" y="210" />
      <point x="502" y="205" type="qcurve" />
      <point x="455" y="189" />
      <point x="183" y="30" />
      <point x="131" y="-12" type="qcurve" />
      <point x="127" y="-15" />
      <point x="123" y="-15" type="qcurve" />
      <point x="113" y="-15" />
      <point x="99" y="16" />
      <point x="99" y="53" />
      <point x="109" y="57" type="qcurve" />
      <point x="144" y="76" />
      <point x="318" y="180" />
    </contour>
  </outline>
</glyph>
<glyph name="question" format="2">
  <unicode hex="003F" />
  <advance width="614" />
  <outline>
    <contour>
      <point x="317" y="103" />
      <point x="351" y="61" />
      <point x="351" y="17" />
      <point x="326" y="-9" />
      <point x="276" y="-9" />
      <point x="244" y="30" />
      <point x="244" y="74" />
      <point x="270" y="103" />
    </contour>
    <contour>
      <point x="328" y="260" type="qcurve" />
      <point x="328" y="242" type="line" />
      <point x="328" y="230" />
      <point x="338" y="188" type="qcurve" />
      <point x="338" y="172" />
      <point x="271" y="172" />
      <point x="259" y="206" />
      <point x="259" y="253" />
      <point x="269" y="322" />
      <point x="312" y="380" />
      <point x="369" y="428" />
      <point x="396" y="453" type="qcurve" />
      <point x="459" y="509" />
      <point x="460" y="582" type="qcurve" />
      <point x="460" y="619" />
      <point x="413" y="670" />
      <point x="310" y="670" />
      <point x="224" y="631" />
      <point x="172" y="577" />
      <point x="159" y="531" type="qcurve" />
      <point x="155" y="518" />
      <point x="125" y="518" />
      <point x="92" y="546" />
      <point x="92" y="567" />
      <point x="94" y="570" type="qcurve" />
      <point x="142" y="655" />
      <point x="274" y="730" />
      <point x="442" y="730" />
      <point x="535" y="654" />
      <point x="535" y="535" />
      <point x="496" y="461" />
      <point x="437" y="406" />
      <point x="377" y="358" />
      <point x="328" y="300" />
    </contour>
  </outline>
</glyph>
<glyph name="A" format="2">
  <unicode hex="0041" />
  <advance width="706" />
  <outline>
    <contour>
      <point x="494" y="303" type="line" />
      <point x="407" y="505" />
      <point x="365" y="615" type="qcurve" />
      <point x="280" y="426" />
      <point x="215" y="292" type="qcurve" />
    </contour>
    <contour>
      <point x="412" y="696" type="qcurve" />
      <point x="409" y="676" type="line" />
      <point x="409" y="663" />
      <point x="463" y="532" type="qcurve" />
      <point x="634" y="126" />
      <point x="696" y="37" type="qcurve" />
      <point x="707" y="21" />
      <point x="708" y="16" type="qcurve" />
      <point x="708" y="4" />
      <point x="671" y="-9" />
      <point x="626" y="-9" />
      <point x="622" y="3" type="qcurve" />
      <point x="603" y="60" />
      <point x="580" y="112" type="qcurve" />
      <point x="519" y="245" type="line" />
      <point x="188" y="230" type="line" />
      <point x="184" y="230" type="line" />
      <point x="168" y="195" />
      <point x="152" y="163" type="qcurve" />
      <point x="121" y="101" type="line" />
      <point x="102" y="62" />
      <point x="83" y="10" type="qcurve" />
      <point x="77" y="-7" />
      <point x="-1" y="-7" />
      <point x="-1" y="12" type="qcurve" />
      <point x="-1" y="18" />
      <point x="7" y="30" />
      <point x="15" y="45" />
      <point x="35" y="82" />
      <point x="75" y="157" />
      <point x="109" y="223" type="qcurve" />
      <point x="101" y="223" type="line" />
      <point x="89" y="223" />
      <point x="69" y="261" />
      <point x="69" y="292" />
      <point x="80" y="292" type="qcurve" />
      <point x="82" y="292" type="line" />
      <point x="100" y="290" />
      <point x="122" y="290" type="qcurve" />
      <point x="141" y="290" type="line" />
      <point x="279" y="566" />
      <point x="319" y="669" type="qcurve" />
      <point x="323" y="678" />
      <point x="328" y="716" />
      <point x="338" y="728" />
      <point x="370" y="728" />
      <point x="409" y="709" />
    </contour>
  </outline>
</glyph>
<glyph name="B" format="2">
  <unicode hex="0042" />
  <advance width="665" />
  <outline>
    <contour>
      <point x="335" y="367" type="line" />
      <point x="259" y="367" />
      <point x="180" y="359" type="qcurve" />
      <point x="180" y="40" type="line" />
      <point x="432" y="40" />
      <point x="507" y="126" type="qcurve" />
      <point x="541" y="165" />
      <point x="541" y="212" type="qcurve" />
      <point x="541" y="294" />
      <point x="477" y="333" type="qcurve" />
      <point x="427" y="365" />
      <point x="354" y="367" type="qcurve" />
    </contour>
    <contour>
      <point x="483" y="564" type="qcurve" />
      <point x="483" y="665" />
      <point x="315" y="666" type="qcurve" />
      <point x="243" y="666" />
      <point x="180" y="648" type="qcurve" />
      <point x="180" y="418" type="line" />
      <point x="194" y="418" type="line" />
      <point x="271" y="418" />
      <point x="359" y="434" />
      <point x="433" y="470" />
      <point x="483" y="527" />
    </contour>
    <contour>
      <point x="54" y="24" />
      <point x="67" y="35" />
      <point x="100" y="35" />
      <point x="109" y="37" type="qcurve" />
      <point x="109" y="640" type="line" />
      <point x="96" y="644" />
      <point x="68" y="673" />
      <point x="68" y="692" />
      <point x="75" y="695" type="qcurve" />
      <point x="102" y="705" />
      <point x="258" y="728" />
      <point x="410" y="728" />
      <point x="460" y="707" type="qcurve" />
      <point x="556" y="667" />
      <point x="556" y="570" type="qcurve" />
      <point x="556" y="492" />
      <point x="487" y="440" type="qcurve" />
      <point x="457" y="418" />
      <point x="429" y="408" type="qcurve" />
      <point x="478" y="403" />
      <point x="562" y="352" />
      <point x="613" y="271" />
      <point x="613" y="154" />
      <point x="586" y="111" type="qcurve" />
      <point x="508" y="-10" />
      <point x="232" y="-10" type="qcurve" />
      <point x="137" y="-10" />
      <point x="75" y="-1" type="qcurve" />
      <point x="55" y="3" />
      <point x="54" y="17" type="qcurve" />
    </contour>
  </outline>
</glyph>
<glyph name="D" format="2">
  <unicode hex="0044" />
  <advance width="745" />
  <outline>
    <contour>
      <point x="180" y="41" type="line" />
      <point x="331" y="44" />
      <point x="524" y="130" />
      <point x="616" y="275" />
      <point x="616" y="356" type="qcurve" />
      <point x="616" y="503" />
      <point x="425" y="667" />
      <point x="305" y="667" type="qcurve" />
      <point x="239" y="667" />
      <point x="180" y="650" type="qcurve" />
    </contour>
    <contour>
      <point x="52" y="15" type="qcurve" />
      <point x="52" y="34" />
      <point x="109" y="35" type="qcurve" />
      <point x="109" y="641" type="line" />
      <point x="95" y="644" />
      <point x="68" y="674" />
      <point x="68" y="694" />
      <point x="75" y="697" type="qcurve" />
      <point x="124" y="716" />
      <point x="250" y="727" type="qcurve" />
      <point x="284" y="729" />
      <point x="310" y="729" type="qcurve" />
      <point x="467" y="729" />
      <point x="689" y="528" />
      <point x="689" y="209" />
      <point x="592" y="113" type="qcurve" />
      <point x="509" y="31" />
      <point x="383" y="8" type="qcurve" />
      <point x="304" y="-6" />
      <point x="187" y="-8" type="qcurve" />
      <point x="173" y="-8" type="line" />
      <point x="52" y="-9" />
    </contour>
  </outline>
</glyph>
<glyph name="J" format="2">
  <unicode hex="004A" />
  <advance width="503" />
  <outline>
    <contour>
      <point x="395" y="693" type="qcurve" />
      <point x="393" y="602" type="line" />
      <point x="393" y="181" type="line" />
      <point x="393" y="39" />
      <point x="301" y="0" type="qcurve" />
      <point x="260" y="-17" />
      <point x="161" y="-17" />
      <point x="85" y="19" />
      <point x="38" y="71" />
      <point x="16" y="117" />
      <point x="16" y="138" />
      <point x="35" y="162" />
      <point x="60" y="177" />
      <point x="81" y="177" />
      <point x="83" y="166" type="qcurve" />
      <point x="99" y="92" />
      <point x="148" y="66" type="qcurve" />
      <point x="179" y="51" />
      <point x="239" y="50" />
      <point x="264" y="61" type="qcurve" />
      <point x="320" y="87" />
      <point x="321" y="184" type="qcurve" />
      <point x="321" y="603" type="line" />
      <point x="317" y="712" type="line" />
      <point x="317" y="722" />
      <point x="356" y="722" />
      <point x="395" y="706" />
    </contour>
  </outline>
</glyph>
<glyph name="P" format="2">
  <unicode hex="0050" />
  <advance width="632" />
  <outline>
    <contour>
      <point x="326" y="664" type="qcurve" />
      <point x="253" y="664" />
      <point x="180" y="643" type="qcurve" />
      <point x="180" y="371" type="line" />
      <point x="186" y="375" />
      <point x="194" y="375" type="qcurve" />
      <point x="365" y="386" />
      <point x="515" y="487" />
      <point x="515" y="554" type="qcurve" />
      <point x="515" y="664" />
    </contour>
    <contour>
      <point x="328" y="728" type="qcurve" />
      <point x="589" y="728" />
      <point x="589" y="555" type="qcurve" />
      <point x="589" y="470" />
      <point x="532" y="417" type="qcurve" />
      <point x="437" y="328" />
      <point x="220" y="328" type="qcurve" />
      <point x="205" y="328" type="line" />
      <point x="191" y="328" />
      <point x="180" y="333" type="qcurve" />
      <point x="180" y="118" type="line" />
      <point x="183" y="-1" type="line" />
      <point x="183" y="-11" />
      <point x="145" y="-11" />
      <point x="106" y="4" />
      <point x="106" y="17" type="qcurve" />
      <point x="109" y="119" type="line" />
      <point x="109" y="633" type="line" />
      <point x="108" y="633" type="line" />
      <point x="93" y="633" />
      <point x="61" y="670" />
      <point x="61" y="693" />
      <point x="71" y="694" type="qcurve" />
      <point x="241" y="727" />
      <point x="300" y="728" />
    </contour>
  </outline>
</glyph>
<glyph name="Q" format="2">
  <unicode hex="0051" />
  <advance width="762" />
  <outline>
    <contour>
      <point x="523" y="89" type="qcurve" />
      <point x="638" y="168" />
      <point x="638" y="380" type="qcurve" />
      <point x="638" y="495" />
      <point x="582" y="578" type="qcurve" />
      <point x="521" y="670" />
      <point x="409" y="670" type="qcurve" />
      <point x="362" y="670" />
      <point x="262" y="626" />
      <point x="219" y="584" type="qcurve" />
      <point x="126" y="493" />
      <point x="126" y="347" type="qcurve" />
      <point x="126" y="265" />
      <point x="175" y="128" />
      <point x="282" y="46" />
      <point x="367" y="46" type="qcurve" />
      <point x="418" y="46" />
      <point x="462" y="59" type="qcurve" />
      <point x="375" y="139" type="line" />
      <point x="359" y="154" />
      <point x="341" y="162" />
      <point x="338" y="171" type="qcurve" />
      <point x="338" y="185" />
      <point x="374" y="201" type="qcurve" />
      <point x="388" y="207" />
      <point x="397" y="207" type="qcurve" />
      <point x="400" y="207" type="line" />
      <point x="417" y="204" />
      <point x="424" y="197" type="qcurve" />
      <point x="443" y="169" />
    </contour>
    <contour>
      <point x="228" y="662" type="qcurve" />
      <point x="306" y="731" />
      <point x="506" y="730" />
      <point x="639" y="637" />
      <point x="712" y="475" />
      <point x="712" y="269" />
      <point x="643" y="93" />
      <point x="571" y="41" type="qcurve" />
      <point x="595" y="17" />
      <point x="649" y="-24" />
      <point x="666" y="-30" type="qcurve" />
      <point x="718" y="-52" />
      <point x="718" y="-63" type="qcurve" />
      <point x="718" y="-72" />
      <point x="646" y="-73" />
      <point x="600" y="-59" />
      <point x="554" y="-24" />
      <point x="517" y="9" type="qcurve" />
      <point x="456" y="-19" />
      <point x="375" y="-18" type="qcurve" />
      <point x="265" y="-18" />
      <point x="123" y="77" />
      <point x="54" y="241" />
      <point x="54" y="414" />
      <point x="88" y="534" />
      <point x="137" y="624" />
      <point x="186" y="674" />
      <point x="218" y="674" />
    </contour>
  </outline>
</glyph>
<glyph name="V" format="2">
  <unicode hex="0056" />
  <advance width="634" />
  <outline>
    <contour>
      <point x="11" y="705" type="qcurve" />
      <point x="11" y="721" />
      <point x="49" y="721" type="qcurve" />
      <point x="65" y="721" />
      <point x="96" y="711" />
      <point x="98" y="700" type="qcurve" />
      <point x="104" y="676" />
      <point x="198" y="441" />
      <point x="311" y="101" type="qcurve" />
      <point x="442" y="450" />
      <point x="537" y="682" />
      <point x="546" y="717" type="qcurve" />
      <point x="549" y="728" />
      <point x="583" y="728" />
      <point x="624" y="703" />
      <point x="624" y="689" type="qcurve" />
      <point x="624" y="684" />
      <point x="599" y="643" />
      <point x="587" y="614" type="qcurve" />
      <point x="382" y="130" />
      <point x="358" y="36" type="qcurve" />
      <point x="354" y="18" />
      <point x="352" y="6" type="qcurve" />
      <point x="349" y="-18" />
      <point x="326" y="-17" type="qcurve" />
      <point x="310" y="-17" />
      <point x="272" y="14" />
      <point x="242" y="105" />
      <point x="215" y="180" type="qcurve" />
      <point x="69" y="587" />
      <point x="12" y="700" type="qcurve" />
      <point x="11" y="703" />
    </contour>
  </outline>
</glyph>
<glyph name="X" format="2">
  <unicode hex="0058" />
  <advance width="614" />
  <outline>
    <contour>
      <point x="307" y="319" type="qcurve" />
      <point x="166" y="112" />
      <point x="113" y="32" />
      <point x="98" y="10" />
      <point x="85" y="-10" />
      <point x="44" y="-10" />
      <point x="9" y="5" />
      <point x="9" y="15" type="qcurve" />
      <point x="9" y="18" />
      <point x="14" y="26" type="qcurve" />
      <point x="71" y="92" />
      <point x="166" y="233" />
      <point x="267" y="378" type="qcurve" />
      <point x="115" y="610" />
      <point x="54" y="679" type="qcurve" />
      <point x="46" y="688" />
      <point x="46" y="693" type="qcurve" />
      <point x="46" y="706" />
      <point x="87" y="725" />
      <point x="122" y="725" />
      <point x="127" y="717" type="qcurve" />
      <point x="153" y="669" />
      <point x="280" y="482" />
      <point x="314" y="429" type="qcurve" />
      <point x="377" y="518" />
      <point x="453" y="625" />
      <point x="492" y="680" />
      <point x="500" y="692" type="qcurve" />
      <point x="512" y="711" type="line" />
      <point x="517" y="717" />
      <point x="544" y="717" />
      <point x="581" y="693" />
      <point x="581" y="676" />
      <point x="552" y="647" />
      <point x="469" y="537" type="qcurve" />
      <point x="403" y="446" />
      <point x="351" y="370" type="qcurve" />
      <point x="467" y="196" />
      <point x="555" y="80" />
      <point x="604" y="29" type="qcurve" />
      <point x="608" y="25" />
      <point x="608" y="19" type="qcurve" />
      <point x="608" y="8" />
      <point x="568" y="-13" />
      <point x="535" y="-13" />
      <point x="526" y="-4" type="qcurve" />
      <point x="516" y="10" />
      <point x="483" y="61" />
      <point x="397" y="183" />
    </contour>
  </outline>
</glyph>
<glyph name="glyph68" format="2">
  <unicode hex="005F" />
  <advance width="512" />
  <outline>
    <contour>
      <point x="507" y="-103" type="line" />
      <point x="526" y="-103" />
      <point x="526" y="-166" />
      <point x="507" y="-166" type="qcurve" />
      <point x="5" y="-166" type="line" />
      <point x="-14" y="-166" />
      <point x="-14" y="-103" />
      <point x="5" y="-103" type="qcurve" />
    </contour>
  </outline>
</glyph>
<glyph name="m" format="2">
  <unicode hex="006D" />
  <advance width="835" />
  <outline>
    <contour>
      <point x="670" y="17" type="qcurve" />
      <point x="674" y="108" type="line" />
      <point x="674" y="300" type="line" />
      <point x="674" y="361" />
      <point x="633" y="436" />
      <point x="588" y="436" type="qcurve" />
      <point x="557" y="436" />
      <point x="493" y="391" />
      <point x="449" y="317" />
      <point x="449" y="274" type="qcurve" />
      <point x="449" y="108" type="line" />
      <point x="454" y="-1" type="line" />
      <point x="454" y="-11" />
      <point x="417" y="-11" />
      <point x="380" y="4" />
      <point x="380" y="17" type="qcurve" />
      <point x="384" y="108" type="line" />
      <point x="384" y="300" type="line" />
      <point x="384" y="436" />
      <point x="308" y="436" type="qcurve" />
      <point x="255" y="436" />
      <point x="215" y="389" type="qcurve" />
      <point x="167" y="330" />
      <point x="164" y="215" type="qcurve" />
      <point x="162" y="160" />
      <point x="161" y="108" type="qcurve" />
      <point x="166" y="-1" type="line" />
      <point x="166" y="-11" />
      <point x="129" y="-11" />
      <point x="91" y="4" />
      <point x="91" y="17" type="qcurve" />
      <point x="93" y="108" type="line" />
      <point x="93" y="365" type="line" />
      <point x="90" y="483" type="line" />
      <point x="90" y="493" />
      <point x="127" y="494" />
      <point x="165" y="478" />
      <point x="165" y="455" />
      <point x="164" y="427" />
      <point x="164" y="407" type="qcurve" />
      <point x="184" y="449" />
      <point x="263" y="498" />
      <point x="366" y="498" />
      <point x="425" y="440" />
      <point x="434" y="402" type="qcurve" />
      <point x="461" y="449" />
      <point x="547" y="498" />
      <point x="644" y="498" />
      <point x="711" y="441" />
      <point x="741" y="352" />
      <point x="741" y="304" type="qcurve" />
      <point x="741" y="108" type="line" />
      <point x="744" y="-1" type="line" />
      <point x="744" y="-11" />
      <point x="708" y="-11" />
      <point x="670" y="4" />
    </contour>
  </outline>
</glyph>
<glyph name="o" format="2">
  <unicode hex="006F" />
  <advance width="575" />
  <outline>
    <contour>
      <point x="273" y="44" type="qcurve" />
      <point x="323" y="44" />
      <point x="402" y="98" />
      <point x="450" y="193" />
      <point x="450" y="336" />
      <point x="383" y="436" />
      <point x="233" y="436" />
      <point x="126" y="296" />
      <point x="126" y="129" />
      <point x="202" y="44" />
    </contour>
    <contour>
      <point x="199" y="456" type="qcurve" />
      <point x="255" y="498" />
      <point x="378" y="498" />
      <point x="423" y="468" type="qcurve" />
      <point x="518" y="406" />
      <point x="518" y="251" type="qcurve" />
      <point x="518" y="147" />
      <point x="455" y="68" type="qcurve" />
      <point x="387" y="-18" />
      <point x="171" y="-18" />
      <point x="57" y="105" />
      <point x="57" y="212" type="qcurve" />
      <point x="57" y="294" />
      <point x="109" y="383" type="qcurve" />
      <point x="129" y="420" />
      <point x="170" y="465" />
      <point x="192" y="465" />
    </contour>
  </outline>
</glyph>
<glyph name="r" format="2">
  <unicode hex="0072" />
  <advance width="440" />
  <outline>
    <contour>
      <point x="94" y="18" type="qcurve" />
      <point x="96" y="109" type="line" />
      <point x="96" y="376" type="line" />
      <point x="93" y="485" type="line" />
      <point x="93" y="495" />
      <point x="130" y="496" />
      <point x="168" y="480" />
      <point x="168" y="457" />
      <point x="165" y="432" />
      <point x="165" y="415" type="qcurve" />
      <point x="185" y="449" />
      <point x="261" y="498" />
      <point x="345" y="498" />
      <point x="398" y="477" />
      <point x="432" y="449" />
      <point x="432" y="420" />
      <point x="409" y="383" />
      <point x="387" y="383" />
      <point x="381" y="393" type="qcurve" />
      <point x="371" y="412" />
      <point x="327" y="431" />
      <point x="311" y="431" type="qcurve" />
      <point x="268" y="431" />
      <point x="231" y="404" type="qcurve" />
      <point x="178" y="365" />
      <point x="168" y="272" type="qcurve" />
      <point x="164" y="235" />
      <point x="164" y="109" type="qcurve" />
      <point x="169" y="0" type="line" />
      <point x="169" y="-10" />
      <point x="132" y="-10" />
      <point x="94" y="5" />
    </contour>
  </outline>
</glyph>
<glyph name="s" format="2">
  <unicode hex="0073" />
  <advance width="522" />
  <outline>
    <contour>
      <point x="200" y="248" type="line" />
      <point x="85" y="275" />
      <point x="85" y="365" type="qcurve" />
      <point x="85" y="405" />
      <point x="111" y="434" type="qcurve" />
      <point x="165" y="497" />
      <point x="376" y="498" />
      <point x="436" y="433" type="qcurve" />
      <point x="438" y="431" />
      <point x="438" y="411" />
      <point x="417" y="378" />
      <point x="399" y="378" />
      <point x="389" y="391" type="qcurve" />
      <point x="356" y="441" />
      <point x="272" y="441" type="qcurve" />
      <point x="213" y="441" />
      <point x="152" y="395" />
      <point x="152" y="342" />
      <point x="179" y="313" />
      <point x="221" y="303" type="qcurve" />
      <point x="319" y="280" type="line" />
      <point x="386" y="265" />
      <point x="463" y="195" />
      <point x="463" y="131" type="qcurve" />
      <point x="463" y="90" />
      <point x="415" y="23" />
      <point x="327" y="-18" />
      <point x="207" y="-18" />
      <point x="128" y="10" />
      <point x="81" y="49" />
      <point x="60" y="82" />
      <point x="60" y="102" />
      <point x="90" y="136" />
      <point x="109" y="136" />
      <point x="112" y="129" type="qcurve" />
      <point x="120" y="109" />
      <point x="135" y="88" type="qcurve" />
      <point x="169" y="41" />
      <point x="266" y="41" type="qcurve" />
      <point x="328" y="41" />
      <point x="395" y="94" />
      <point x="395" y="165" />
      <point x="358" y="210" />
      <point x="302" y="223" type="qcurve" />
    </contour>
  </outline>
</glyph>
<glyph name="v" format="2">
  <unicode hex="0076" />
  <advance width="501" />
  <outline>
    <contour>
      <point x="30" y="474" type="qcurve" />
      <point x="30" y="492" />
      <point x="82" y="493" type="qcurve" />
      <point x="107" y="493" />
      <point x="110" y="479" type="qcurve" />
      <point x="120" y="435" />
      <point x="128" y="415" type="qcurve" />
      <point x="244" y="92" type="line" />
      <point x="377" y="415" type="line" />
      <point x="389" y="445" />
      <point x="400" y="487" type="qcurve" />
      <point x="403" y="497" />
      <point x="438" y="498" />
      <point x="476" y="480" />
      <point x="476" y="468" type="qcurve" />
      <point x="476" y="466" />
      <point x="449" y="413" />
      <point x="441" y="395" type="qcurve" />
      <point x="302" y="67" type="line" />
      <point x="293" y="45" />
      <point x="280" y="5" type="qcurve" />
      <point x="273" y="-19" />
      <point x="232" y="-18" />
      <point x="216" y="1" type="qcurve" />
      <point x="208" y="9" />
      <point x="202" y="28" />
      <point x="194" y="47" type="qcurve" />
      <point x="62" y="398" type="line" />
      <point x="56" y="415" />
      <point x="30" y="471" />
    </contour>
  </outline>
</glyph>
<glyph name="x" format="2">
  <unicode hex="0078" />
  <advance width="512" />
  <outline>
    <contour>
      <point x="257" y="199" type="line" />
      <point x="154" y="57" type="line" />
      <point x="145" y="45" />
      <point x="123" y="9" />
      <point x="117" y="1" type="qcurve" />
      <point x="109" y="-12" />
      <point x="70" y="-12" />
      <point x="35" y="1" />
      <point x="35" y="10" type="qcurve" />
      <point x="35" y="13" />
      <point x="59" y="38" />
      <point x="103" y="92" type="qcurve" />
      <point x="219" y="250" type="line" />
      <point x="110" y="401" type="line" />
      <point x="83" y="437" />
      <point x="53" y="465" />
      <point x="53" y="468" type="qcurve" />
      <point x="53" y="476" />
      <point x="92" y="492" />
      <point x="126" y="492" />
      <point x="131" y="483" type="qcurve" />
      <point x="146" y="455" />
      <point x="162" y="434" type="qcurve" />
      <point x="258" y="302" type="line" />
      <point x="357" y="438" type="line" />
      <point x="366" y="450" />
      <point x="384" y="480" />
      <point x="393" y="496" />
      <point x="426" y="496" />
      <point x="464" y="480" />
      <point x="464" y="472" type="qcurve" />
      <point x="464" y="469" />
      <point x="439" y="445" />
      <point x="408" y="406" type="qcurve" />
      <point x="295" y="251" type="line" />
      <point x="410" y="94" type="line" />
      <point x="422" y="78" />
      <point x="476" y="17" />
      <point x="476" y="13" type="qcurve" />
      <point x="476" y="4" />
      <point x="441" y="-9" />
      <point x="401" y="-9" />
      <point x="395" y="1" type="qcurve" />
      <point x="368" y="45" />
      <point x="357" y="59" type="qcurve" />
    </contour>
  </outline>
</glyph>
<glyph name="braceleft" format="2">
  <unicode hex="007B" />
  <advance width="358" />
  <outline>
    <contour>
      <point x="326" y="798" type="qcurve" />
      <point x="339" y="798" />
      <point x="339" y="780" type="qcurve" />
      <point x="339" y="773" />
      <point x="329" y="767" type="qcurve" />
      <point x="255" y="727" />
      <point x="255" y="642" type="qcurve" />
      <point x="261" y="480" type="line" />
      <point x="261" y="360" />
      <point x="186" y="319" type="qcurve" />
      <point x="224" y="308" />
      <point x="261" y="239" />
      <point x="261" y="198" type="qcurve" />
      <point x="261" y="117" />
      <point x="246" y="11" />
      <point x="246" y="-4" type="qcurve" />
      <point x="246" y="-48" />
      <point x="285" y="-110" />
      <point x="328" y="-134" type="qcurve" />
      <point x="340" y="-141" />
      <point x="340" y="-163" />
      <point x="326" y="-163" type="qcurve" />
      <point x="320" y="-163" />
      <point x="311" y="-161" type="qcurve" />
      <point x="180" y="-124" />
      <point x="180" y="-4" type="qcurve" />
      <point x="180" y="28" />
      <point x="196" y="119" />
      <point x="196" y="216" />
      <point x="188" y="239" type="qcurve" />
      <point x="172" y="291" />
      <point x="109" y="295" type="qcurve" />
      <point x="96" y="296" />
      <point x="78" y="322" />
      <point x="78" y="354" />
      <point x="94" y="354" type="qcurve" />
      <point x="105" y="354" type="line" />
      <point x="194" y="354" />
      <point x="195" y="483" type="qcurve" />
      <point x="188" y="644" type="line" />
      <point x="188" y="687" />
      <point x="242" y="762" />
      <point x="311" y="795" type="qcurve" />
      <point x="320" y="798" />
    </contour>
  </outline>
</glyph>
<glyph name="braceright" format="2">
  <unicode hex="007D" />
  <advance width="358" />
  <outline>
    <contour>
      <point x="97" y="158" type="line" />
      <point x="97" y="277" />
      <point x="172" y="318" type="qcurve" />
      <point x="134" y="329" />
      <point x="97" y="399" />
      <point x="97" y="440" type="qcurve" />
      <point x="97" y="521" />
      <point x="113" y="627" />
      <point x="113" y="642" type="qcurve" />
      <point x="113" y="686" />
      <point x="74" y="748" />
      <point x="31" y="772" type="qcurve" />
      <point x="19" y="779" />
      <point x="18" y="801" />
      <point x="33" y="801" type="qcurve" />
      <point x="39" y="801" type="line" />
      <point x="43" y="801" />
      <point x="47" y="799" type="qcurve" />
      <point x="178" y="762" />
      <point x="178" y="642" type="qcurve" />
      <point x="178" y="610" />
      <point x="163" y="520" />
      <point x="163" y="423" />
      <point x="170" y="399" type="qcurve" />
      <point x="186" y="347" />
      <point x="250" y="343" type="qcurve" />
      <point x="264" y="342" />
      <point x="281" y="316" />
      <point x="281" y="284" />
      <point x="264" y="284" type="qcurve" />
      <point x="253" y="284" type="line" />
      <point x="164" y="284" />
      <point x="164" y="155" type="qcurve" />
      <point x="170" y="-6" type="line" />
      <point x="170" y="-78" />
      <point x="104" y="-125" type="qcurve" />
      <point x="77" y="-143" />
      <point x="36" y="-160" />
      <point x="34" y="-160" type="qcurve" />
      <point x="19" y="-160" />
      <point x="18" y="-135" />
      <point x="30" y="-129" type="qcurve" />
      <point x="104" y="-88" />
      <point x="103" y="-4" type="qcurve" />
    </contour>
  </outline>
</glyph>
<glyph name="section" format="2">
  <unicode hex="00A7" />
  <advance width="691" />
  <outline>
    <contour>
      <point x="468" y="271" type="qcurve" />
      <point x="540" y="303" />
      <point x="540" y="377" type="qcurve" />
      <point x="540" y="433" />
      <point x="465" y="486" />
      <point x="380" y="504" type="qcurve" />
      <point x="338" y="512" type="line" />
      <point x="334" y="512" type="line" />
      <point x="208" y="512" />
      <point x="169" y="463" type="qcurve" />
      <point x="152" y="440" />
      <point x="152" y="392" />
      <point x="160" y="375" type="qcurve" />
      <point x="178" y="338" />
      <point x="278" y="317" type="qcurve" />
      <point x="385" y="296" type="line" />
      <point x="430" y="287" />
    </contour>
    <contour>
      <point x="251" y="256" type="line" />
      <point x="152" y="276" />
      <point x="75" y="358" />
      <point x="75" y="458" />
      <point x="136" y="529" />
      <point x="194" y="549" type="qcurve" />
      <point x="140" y="571" />
      <point x="95" y="635" />
      <point x="95" y="717" />
      <point x="155" y="788" />
      <point x="263" y="834" />
      <point x="336" y="834" type="qcurve" />
      <point x="475" y="834" />
      <point x="562" y="765" type="qcurve" />
      <point x="572" y="756" />
      <point x="572" y="724" />
      <point x="553" y="692" />
      <point x="536" y="692" />
      <point x="518" y="711" />
      <point x="495" y="727" type="qcurve" />
      <point x="436" y="770" />
      <point x="253" y="770" />
      <point x="172" y="713" />
      <point x="172" y="679" type="qcurve" />
      <point x="172" y="656" />
      <point x="180" y="640" type="qcurve" />
      <point x="197" y="608" />
      <point x="298" y="588" type="qcurve" />
      <point x="406" y="566" type="line" />
      <point x="617" y="526" />
      <point x="616" y="378" type="qcurve" />
      <point x="616" y="335" />
      <point x="571" y="260" />
      <point x="532" y="236" type="qcurve" />
      <point x="595" y="185" />
      <point x="596" y="104" type="qcurve" />
      <point x="596" y="50" />
      <point x="563" y="8" type="qcurve" />
      <point x="493" y="-81" />
      <point x="332" y="-81" type="qcurve" />
      <point x="245" y="-81" />
      <point x="117" y="-29" />
      <point x="63" y="25" type="qcurve" />
      <point x="56" y="32" />
      <point x="56" y="60" />
      <point x="82" y="94" />
      <point x="101" y="94" />
      <point x="108" y="87" type="qcurve" />
      <point x="127" y="57" />
      <point x="165" y="33" type="qcurve" />
      <point x="239" y="-16" />
      <point x="420" y="-16" />
      <point x="519" y="50" />
      <point x="519" y="158" />
      <point x="441" y="216" />
      <point x="359" y="233" type="qcurve" />
    </contour>
  </outline>
</glyph>
<glyph name="copyright" format="2">
  <unicode hex="00A9" />
  <advance width="798" />
  <outline>
    <contour>
      <point x="564" y="217" type="qcurve" />
      <point x="530" y="167" />
      <point x="444" y="124" />
      <point x="331" y="124" />
      <point x="250" y="169" />
      <point x="202" y="254" />
      <point x="202" y="311" type="qcurve" />
      <point x="202" y="420" />
      <point x="348" y="574" />
      <point x="435" y="574" type="qcurve" />
      <point x="483" y="574" />
      <point x="541" y="541" />
      <point x="566" y="504" />
      <point x="566" y="482" />
      <point x="539" y="452" />
      <point x="521" y="452" />
      <point x="511" y="469" />
      <point x="501" y="490" />
      <point x="465" y="516" />
      <point x="396" y="516" />
      <point x="319" y="464" />
      <point x="269" y="375" />
      <point x="269" y="269" />
      <point x="287" y="240" type="qcurve" />
      <point x="319" y="182" />
      <point x="470" y="181" />
      <point x="541" y="239" type="qcurve" />
      <point x="551" y="247" />
      <point x="559" y="247" type="qcurve" />
      <point x="571" y="247" />
      <point x="571" y="236" type="qcurve" />
      <point x="571" y="227" />
    </contour>
    <contour>
      <point x="698" y="283" />
      <point x="698" y="406" />
      <point x="652" y="513" />
      <point x="570" y="595" />
      <point x="463" y="641" />
      <point x="340" y="641" />
      <point x="232" y="595" />
      <point x="151" y="513" />
      <point x="104" y="406" />
      <point x="104" y="283" />
      <point x="151" y="175" />
      <point x="232" y="93" />
      <point x="340" y="47" />
      <point x="463" y="47" />
      <point x="570" y="93" />
      <point x="652" y="175" />
    </contour>
    <contour>
      <point x="753" y="417" />
      <point x="753" y="271" />
      <point x="697" y="144" />
      <point x="600" y="47" />
      <point x="473" y="-7" />
      <point x="328" y="-7" />
      <point x="201" y="47" />
      <point x="103" y="144" />
      <point x="49" y="271" />
      <point x="49" y="417" />
      <point x="103" y="544" />
      <point x="201" y="641" />
      <point x="328" y="695" />
      <point x="473" y="695" />
      <point x="600" y="641" />
      <point x="697" y="544" />
    </contour>
  </outline>
</glyph>
<glyph name="ordfeminine" format="2">
  <unicode hex="00AA" />
  <advance width="327" />
  <outline>
    <contour>
      <point x="220" y="645" type="qcurve" />
      <point x="220" y="665" />
      <point x="222" y="686" type="qcurve" />
      <point x="213" y="688" />
      <point x="209" y="693" type="qcurve" />
      <point x="198" y="710" />
      <point x="158" y="711" />
      <point x="139" y="695" type="qcurve" />
      <point x="97" y="660" />
      <point x="97" y="536" />
      <point x="167" y="536" />
      <point x="216" y="593" />
    </contour>
    <contour>
      <point x="222" y="749" type="line" />
      <point x="224" y="758" />
      <point x="259" y="758" />
      <point x="287" y="746" />
      <point x="287" y="736" type="qcurve" />
      <point x="287" y="735" type="line" />
      <point x="280" y="638" />
      <point x="280" y="586" />
      <point x="284" y="551" />
      <point x="297" y="525" />
      <point x="297" y="510" />
      <point x="275" y="481" />
      <point x="252" y="481" />
      <point x="238" y="504" />
      <point x="230" y="536" type="qcurve" />
      <point x="213" y="509" />
      <point x="159" y="479" />
      <point x="133" y="479" type="qcurve" />
      <point x="90" y="479" />
      <point x="36" y="537" />
      <point x="36" y="641" />
      <point x="79" y="719" />
      <point x="144" y="766" />
      <point x="195" y="766" />
      <point x="221" y="757" />
      <point x="222" y="756" type="qcurve" />
    </contour>
  </outline>
</glyph>
<glyph name="logicalnot" format="2">
  <unicode hex="00AC" />
  <advance width="604" />
  <outline>
    <contour>
      <point x="455" y="316" type="line" />
      <point x="72" y="316" type="line" />
      <point x="62" y="316" />
      <point x="50" y="337" />
      <point x="50" y="361" />
      <point x="61" y="382" />
      <point x="72" y="382" type="qcurve" />
      <point x="468" y="382" type="line" />
      <point x="493" y="382" />
      <point x="520" y="354" />
      <point x="520" y="330" type="qcurve" />
      <point x="520" y="124" type="line" />
      <point x="520" y="114" />
      <point x="500" y="102" />
      <point x="475" y="102" />
      <point x="455" y="114" />
      <point x="455" y="124" type="qcurve" />
    </contour>
  </outline>
</glyph>
<glyph name="degree" format="2">
  <unicode hex="00B0" />
  <advance width="327" />
  <outline>
    <contour>
      <point x="86" y="593" />
      <point x="130" y="546" />
      <point x="195" y="546" />
      <point x="242" y="593" />
      <point x="242" y="656" />
      <point x="198" y="701" />
      <point x="133" y="701" />
      <point x="86" y="658" />
    </contour>
    <contour>
      <point x="262" y="722" />
      <point x="299" y="662" />
      <point x="299" y="588" />
      <point x="263" y="525" />
      <point x="202" y="488" />
      <point x="128" y="488" />
      <point x="66" y="524" />
      <point x="29" y="586" />
      <point x="29" y="660" />
      <point x="65" y="722" />
      <point x="126" y="759" />
      <point x="201" y="759" />
    </contour>
  </outline>
</glyph>
<glyph name="plusminus" format="2">
  <unicode hex="00B1" />
  <advance width="614" />
  <outline>
    <contour>
      <point x="471" y="75" type="line" />
      <point x="478" y="75" />
      <point x="543" y="78" type="qcurve" />
      <point x="544" y="78" type="line" />
      <point x="556" y="78" />
      <point x="571" y="49" />
      <point x="571" y="35" type="qcurve" />
      <point x="571" y="9" />
      <point x="553" y="9" type="qcurve" />
      <point x="470" y="11" type="line" />
      <point x="143" y="11" type="line" />
      <point x="85" y="11" />
      <point x="67" y="8" type="qcurve" />
      <point x="65" y="8" type="line" />
      <point x="55" y="8" />
      <point x="41" y="36" />
      <point x="41" y="50" type="qcurve" />
      <point x="41" y="77" />
      <point x="60" y="77" type="qcurve" />
      <point x="91" y="75" />
      <point x="144" y="75" type="qcurve" />
    </contour>
    <contour>
      <point x="471" y="355" type="line" />
      <point x="478" y="355" />
      <point x="543" y="358" type="qcurve" />
      <point x="544" y="358" type="line" />
      <point x="556" y="358" />
      <point x="571" y="330" />
      <point x="571" y="315" type="qcurve" />
      <point x="571" y="289" />
      <point x="553" y="290" type="qcurve" />
      <point x="470" y="292" type="line" />
      <point x="337" y="292" type="line" />
      <point x="337" y="211" type="line" />
      <point x="338" y="131" type="line" />
      <point x="338" y="112" />
      <point x="309" y="112" type="qcurve" />
      <point x="296" y="112" />
      <point x="270" y="124" />
      <point x="270" y="136" type="qcurve" />
      <point x="270" y="138" type="line" />
      <point x="273" y="170" />
      <point x="273" y="210" type="qcurve" />
      <point x="273" y="292" type="line" />
      <point x="143" y="292" type="line" />
      <point x="85" y="292" />
      <point x="67" y="289" type="qcurve" />
      <point x="65" y="289" type="line" />
      <point x="55" y="289" />
      <point x="41" y="316" />
      <point x="41" y="331" type="qcurve" />
      <point x="41" y="358" />
      <point x="60" y="357" type="qcurve" />
      <point x="91" y="355" />
      <point x="144" y="355" type="qcurve" />
      <point x="273" y="355" type="line" />
      <point x="273" y="410" type="line" />
      <point x="273" y="463" />
      <point x="271" y="494" type="qcurve" />
      <point x="271" y="513" />
      <point x="298" y="513" type="qcurve" />
      <point x="312" y="513" />
      <point x="340" y="501" />
      <point x="340" y="489" type="qcurve" />
      <point x="340" y="487" type="line" />
      <point x="337" y="450" />
      <point x="337" y="411" type="qcurve" />
      <point x="337" y="355" type="line" />
    </contour>
  </outline>
</glyph>
<glyph name="uni00B2" format="2">
  <unicode hex="00B2" />
  <advance width="389" />
  <outline>
    <contour>
      <point x="187" y="341" type="line" />
      <point x="124" y="341" />
      <point x="88" y="334" type="qcurve" />
      <point x="73" y="334" />
      <point x="53" y="364" />
      <point x="53" y="386" />
      <point x="61" y="397" />
      <point x="68" y="401" />
      <point x="85" y="432" />
      <point x="155" y="505" />
      <point x="225" y="562" />
      <point x="267" y="605" />
      <point x="267" y="650" />
      <point x="240" y="667" />
      <point x="181" y="667" />
      <point x="148" y="642" />
      <point x="133" y="612" />
      <point x="120" y="596" />
      <point x="103" y="596" />
      <point x="78" y="621" />
      <point x="78" y="646" />
      <point x="109" y="689" />
      <point x="169" y="726" />
      <point x="271" y="726" />
      <point x="330" y="674" />
      <point x="330" y="589" />
      <point x="272" y="522" />
      <point x="167" y="439" />
      <point x="136" y="398" type="qcurve" />
      <point x="151" y="399" />
      <point x="167" y="399" type="qcurve" />
      <point x="191" y="399" type="line" />
      <point x="268" y="398" type="line" />
      <point x="302" y="400" type="line" />
      <point x="315" y="400" />
      <point x="331" y="374" />
      <point x="331" y="360" type="qcurve" />
      <point x="331" y="337" />
      <point x="312" y="338" type="qcurve" />
    </contour>
  </outline>
</glyph>
<glyph name="uni00B3" format="2">
  <unicode hex="00B3" />
  <advance width="389" />
  <outline>
    <contour>
      <point x="161" y="508" type="qcurve" />
      <point x="156" y="507" type="line" />
      <point x="146" y="507" />
      <point x="128" y="534" />
      <point x="128" y="562" />
      <point x="140" y="563" type="qcurve" />
      <point x="199" y="569" />
      <point x="233" y="595" type="qcurve" />
      <point x="253" y="610" />
      <point x="254" y="634" type="qcurve" />
      <point x="254" y="670" />
      <point x="156" y="670" />
      <point x="127" y="632" type="qcurve" />
      <point x="115" y="617" />
      <point x="95" y="616" />
      <point x="75" y="645" />
      <point x="75" y="669" />
      <point x="92" y="685" type="qcurve" />
      <point x="135" y="727" />
      <point x="196" y="727" type="qcurve" />
      <point x="314" y="727" />
      <point x="313" y="636" type="qcurve" />
      <point x="313" y="610" />
      <point x="286" y="566" />
      <point x="263" y="553" type="qcurve" />
      <point x="290" y="543" />
      <point x="327" y="494" />
      <point x="327" y="462" type="qcurve" />
      <point x="327" y="406" />
      <point x="261" y="329" />
      <point x="121" y="329" />
      <point x="73" y="365" type="qcurve" />
      <point x="54" y="380" />
      <point x="53" y="406" />
      <point x="73" y="432" />
      <point x="91" y="432" />
      <point x="98" y="425" type="qcurve" />
      <point x="132" y="388" />
      <point x="225" y="388" />
      <point x="266" y="426" />
      <point x="266" y="455" type="qcurve" />
      <point x="266" y="515" />
      <point x="205" y="515" type="qcurve" />
      <point x="183" y="515" />
    </contour>
  </outline>
</glyph>
<glyph name="mu" format="2">
  <unicode hex="00B5" />
  <advance width="604" />
  <outline>
    <contour>
      <point x="92" y="-155" type="qcurve" />
      <point x="94" y="-65" type="line" />
      <point x="94" y="377" type="line" />
      <point x="91" y="485" type="line" />
      <point x="91" y="495" />
      <point x="128" y="496" />
      <point x="165" y="480" />
      <point x="165" y="467" type="qcurve" />
      <point x="163" y="377" type="line" />
      <point x="163" y="187" type="line" />
      <point x="163" y="104" />
      <point x="202" y="66" type="qcurve" />
      <point x="222" y="46" />
      <point x="300" y="45" />
      <point x="340" y="78" type="qcurve" />
      <point x="431" y="156" />
      <point x="436" y="350" type="qcurve" />
      <point x="437" y="428" />
      <point x="437" y="453" type="qcurve" />
      <point x="437" y="486" type="line" />
      <point x="437" y="496" />
      <point x="475" y="497" />
      <point x="512" y="482" />
      <point x="512" y="470" type="qcurve" />
      <point x="512" y="468" type="line" />
      <point x="500" y="394" />
      <point x="500" y="99" />
      <point x="539" y="36" type="qcurve" />
      <point x="541" y="32" />
      <point x="541" y="18" />
      <point x="513" y="-13" />
      <point x="480" y="-13" />
      <point x="469" y="7" type="qcurve" />
      <point x="444" y="49" />
      <point x="439" y="110" type="qcurve" />
      <point x="411" y="56" />
      <point x="318" y="-18" />
      <point x="254" y="-18" type="qcurve" />
      <point x="224" y="-18" />
      <point x="176" y="12" />
      <point x="162" y="32" type="qcurve" />
      <point x="162" y="-65" type="line" />
      <point x="165" y="-173" type="line" />
      <point x="165" y="-183" />
      <point x="128" y="-183" />
      <point x="92" y="-168" />
    </contour>
  </outline>
</glyph>
<glyph name="glyph123" format="2">
  <unicode hex="00B7" />
  <advance width="358" />
  <outline>
    <contour>
      <point x="272" y="326" />
      <point x="228" y="281" />
      <point x="166" y="281" />
      <point x="121" y="314" />
      <point x="92" y="366" />
      <point x="92" y="428" />
      <point x="135" y="476" />
      <point x="198" y="476" />
      <point x="243" y="442" />
      <point x="272" y="391" />
    </contour>
  </outline>
</glyph>
<glyph name="uni00B9" format="2">
  <unicode hex="00B9" />
  <advance width="389" />
  <outline>
    <contour>
      <point x="240" y="442" type="line" />
      <point x="240" y="395" />
      <point x="242" y="350" type="qcurve" />
      <point x="242" y="349" type="line" />
      <point x="242" y="334" />
      <point x="207" y="334" />
      <point x="177" y="351" />
      <point x="177" y="365" type="qcurve" />
      <point x="177" y="366" type="line" />
      <point x="179" y="437" type="line" />
      <point x="179" y="633" type="line" />
      <point x="141" y="608" />
      <point x="109" y="608" />
      <point x="85" y="627" />
      <point x="85" y="643" />
      <point x="94" y="647" type="qcurve" />
      <point x="116" y="655" />
      <point x="152" y="682" />
      <point x="169" y="695" type="qcurve" />
      <point x="174" y="700" />
      <point x="196" y="727" />
      <point x="215" y="727" />
      <point x="244" y="706" />
      <point x="244" y="692" type="qcurve" />
      <point x="240" y="634" type="line" />
    </contour>
  </outline>
</glyph>
<glyph name="onequarter" format="2">
  <unicode hex="00BC" />
  <advance width="1024" />
  <outline>
    <contour>
      <point x="290" y="366" type="line" />
      <point x="290" y="351" />
      <point x="265" y="350" type="qcurve" />
      <point x="254" y="350" />
      <point x="224" y="368" />
      <point x="224" y="381" type="qcurve" />
      <point x="224" y="382" type="line" />
      <point x="226" y="454" type="line" />
      <point x="226" y="711" type="line" />
      <point x="185" y="686" />
      <point x="150" y="686" />
      <point x="125" y="703" />
      <point x="125" y="719" />
      <point x="135" y="723" type="qcurve" />
      <point x="163" y="733" />
      <point x="221" y="776" />
      <point x="244" y="803" />
      <point x="265" y="803" />
      <point x="292" y="781" />
      <point x="292" y="768" type="qcurve" />
      <point x="288" y="710" type="line" />
      <point x="288" y="459" type="line" />
      <point x="288" y="412" />
      <point x="290" y="367" type="qcurve" />
    </contour>
    <contour>
      <point x="184" y="10" type="line" />
      <point x="144" y="-30" />
      <point x="100" y="-83" type="qcurve" />
      <point x="94" y="-89" />
      <point x="76" y="-89" />
      <point x="55" y="-54" />
      <point x="55" y="-30" />
      <point x="60" y="-26" type="qcurve" />
      <point x="96" y="3" />
      <point x="144" y="51" type="qcurve" />
      <point x="852" y="763" type="line" />
      <point x="913" y="828" />
      <point x="936" y="856" type="qcurve" />
      <point x="942" y="863" />
      <point x="961" y="863" />
      <point x="981" y="828" />
      <point x="981" y="804" />
      <point x="976" y="800" type="qcurve" />
      <point x="958" y="783" />
      <point x="912" y="742" />
      <point x="892" y="722" type="qcurve" />
    </contour>
    <contour>
      <point x="660" y="30" type="line" />
      <point x="632" y="25" type="line" />
      <point x="618" y="25" />
      <point x="589" y="50" />
      <point x="589" y="78" />
      <point x="604" y="96" />
      <point x="660" y="174" />
      <point x="784" y="362" />
      <point x="796" y="393" type="qcurve" />
      <point x="799" y="400" />
      <point x="819" y="400" />
      <point x="851" y="372" />
      <point x="851" y="352" />
      <point x="846" y="344" type="qcurve" />
      <point x="831" y="324" type="line" />
      <point x="822" y="310" />
      <point x="725" y="162" />
      <point x="671" y="87" type="qcurve" />
      <point x="824" y="94" type="line" />
      <point x="824" y="211" type="line" />
      <point x="823" y="276" type="line" />
      <point x="823" y="288" />
      <point x="860" y="289" />
      <point x="887" y="276" />
      <point x="887" y="265" type="qcurve" />
      <point x="886" y="211" type="line" />
      <point x="886" y="95" type="line" />
      <point x="924" y="100" />
      <point x="951" y="100" />
      <point x="967" y="72" />
      <point x="967" y="38" />
      <point x="953" y="38" type="qcurve" />
      <point x="886" y="38" type="line" />
      <point x="886" y="15" type="line" />
      <point x="888" y="-48" type="line" />
      <point x="888" y="-60" />
      <point x="868" y="-60" type="qcurve" />
      <point x="823" y="-60" />
      <point x="823" y="-38" type="qcurve" />
      <point x="824" y="16" type="line" />
      <point x="824" y="37" type="line" />
    </contour>
  </outline>
</glyph>
<glyph name="threequarters" format="2">
  <unicode hex="00BE" />
  <advance width="1024" />
  <outline>
    <contour>
      <point x="660" y="30" type="line" />
      <point x="632" y="25" type="line" />
      <point x="618" y="25" />
      <point x="589" y="50" />
      <point x="589" y="78" />
      <point x="604" y="96" />
      <point x="660" y="174" />
      <point x="784" y="362" />
      <point x="796" y="393" type="qcurve" />
      <point x="799" y="400" />
      <point x="819" y="400" />
      <point x="851" y="372" />
      <point x="851" y="352" />
      <point x="846" y="344" type="qcurve" />
      <point x="831" y="324" type="line" />
      <point x="822" y="310" />
      <point x="725" y="162" />
      <point x="671" y="87" type="qcurve" />
      <point x="824" y="94" type="line" />
      <point x="824" y="211" type="line" />
      <point x="823" y="276" type="line" />
      <point x="823" y="288" />
      <point x="860" y="289" />
      <point x="887" y="276" />
      <point x="887" y="265" type="qcurve" />
      <point x="886" y="211" type="line" />
      <point x="886" y="95" type="line" />
      <point x="924" y="100" />
      <point x="951" y="100" />
      <point x="967" y="72" />
      <point x="967" y="38" />
      <point x="953" y="38" type="qcurve" />
      <point x="886" y="38" type="line" />
      <point x="886" y="15" type="line" />
      <point x="888" y="-48" type="line" />
      <point x="888" y="-60" />
      <point x="868" y="-60" type="qcurve" />
      <point x="823" y="-60" />
      <point x="823" y="-38" type="qcurve" />
      <point x="824" y="16" type="line" />
      <point x="824" y="37" type="line" />
    </contour>
    <contour>
      <point x="258" y="560" type="qcurve" />
      <point x="246" y="560" />
      <point x="205" y="552" type="qcurve" />
      <point x="192" y="552" />
      <point x="174" y="580" />
      <point x="174" y="611" />
      <point x="189" y="612" type="qcurve" />
      <point x="270" y="621" />
      <point x="309" y="655" type="qcurve" />
      <point x="327" y="671" />
      <point x="328" y="718" />
      <point x="285" y="743" />
      <point x="256" y="743" type="qcurve" />
      <point x="193" y="743" />
      <point x="160" y="701" type="qcurve" />
      <point x="148" y="686" />
      <point x="123" y="686" />
      <point x="102" y="713" />
      <point x="102" y="744" />
      <point x="147" y="778" />
      <point x="216" y="803" />
      <point x="251" y="803" type="qcurve" />
      <point x="313" y="803" />
      <point x="390" y="745" />
      <point x="390" y="659" />
      <point x="345" y="609" />
      <point x="315" y="599" type="qcurve" />
      <point x="358" y="593" />
      <point x="410" y="534" />
      <point x="410" y="445" />
      <point x="367" y="379" />
      <point x="288" y="339" />
      <point x="186" y="339" />
      <point x="118" y="362" />
      <point x="80" y="394" />
      <point x="80" y="420" />
      <point x="103" y="449" />
      <point x="124" y="449" />
      <point x="132" y="440" type="qcurve" />
      <point x="165" y="398" />
      <point x="232" y="398" type="qcurve" />
      <point x="279" y="398" />
      <point x="347" y="449" />
      <point x="347" y="519" />
      <point x="297" y="560" />
    </contour>
    <contour>
      <point x="184" y="10" type="line" />
      <point x="144" y="-30" />
      <point x="100" y="-83" type="qcurve" />
      <point x="94" y="-89" />
      <point x="76" y="-89" />
      <point x="55" y="-54" />
      <point x="55" y="-30" />
      <point x="60" y="-26" type="qcurve" />
      <point x="96" y="3" />
      <point x="144" y="51" type="qcurve" />
      <point x="852" y="763" type="line" />
      <point x="913" y="828" />
      <point x="936" y="856" type="qcurve" />
      <point x="942" y="863" />
      <point x="961" y="863" />
      <point x="981" y="828" />
      <point x="981" y="804" />
      <point x="976" y="800" type="qcurve" />
      <point x="958" y="783" />
      <point x="912" y="742" />
      <point x="892" y="722" type="qcurve" />
    </contour>
  </outline>
</glyph>
<glyph name="AE" format="2">
  <unicode hex="00C6" />
  <advance width="921" />
  <outline>
    <contour>
      <point x="436" y="633" type="line" />
      <point x="353" y="478" />
      <point x="242" y="285" type="qcurve" />
      <point x="436" y="296" type="line" />
    </contour>
    <contour>
      <point x="760" y="66" type="line" />
      <point x="799" y="66" />
      <point x="845" y="69" type="qcurve" />
      <point x="846" y="69" type="line" />
      <point x="859" y="69" />
      <point x="879" y="31" />
      <point x="879" y="-4" />
      <point x="866" y="-4" type="qcurve" />
      <point x="811" y="-1" />
      <point x="761" y="-1" type="qcurve" />
      <point x="527" y="-3" type="line" />
      <point x="511" y="-3" />
      <point x="487" y="-10" />
      <point x="458" y="-10" />
      <point x="429" y="26" />
      <point x="429" y="38" type="qcurve" />
      <point x="436" y="86" type="line" />
      <point x="436" y="236" type="line" />
      <point x="205" y="222" type="line" />
      <point x="109" y="56" />
      <point x="86" y="12" type="qcurve" />
      <point x="77" y="-4" />
      <point x="55" y="-4" type="qcurve" />
      <point x="4" y="-4" />
      <point x="4" y="18" type="qcurve" />
      <point x="4" y="29" />
      <point x="16" y="47" type="qcurve" />
      <point x="71" y="122" />
      <point x="124" y="216" type="qcurve" />
      <point x="102" y="213" />
      <point x="101" y="213" type="qcurve" />
      <point x="100" y="213" type="line" />
      <point x="87" y="213" />
      <point x="61" y="249" />
      <point x="61" y="282" />
      <point x="85" y="282" type="qcurve" />
      <point x="129" y="282" type="line" />
      <point x="151" y="282" />
      <point x="164" y="283" type="qcurve" />
      <point x="236" y="403" />
      <point x="364" y="635" />
      <point x="391" y="690" />
      <point x="400" y="725" />
      <point x="442" y="725" />
      <point x="499" y="702" type="qcurve" />
      <point x="734" y="719" type="line" />
      <point x="758" y="721" />
      <point x="806" y="726" />
      <point x="819" y="727" type="qcurve" />
      <point x="821" y="727" type="line" />
      <point x="834" y="727" />
      <point x="853" y="690" />
      <point x="853" y="656" />
      <point x="841" y="656" type="qcurve" />
      <point x="804" y="657" type="line" />
      <point x="768" y="657" />
      <point x="735" y="655" type="qcurve" />
      <point x="510" y="639" type="line" />
      <point x="510" y="413" type="line" />
      <point x="671" y="421" type="line" />
      <point x="693" y="422" />
      <point x="742" y="428" />
      <point x="756" y="429" type="qcurve" />
      <point x="757" y="429" type="line" />
      <point x="770" y="429" />
      <point x="791" y="392" />
      <point x="791" y="358" />
      <point x="777" y="358" type="qcurve" />
      <point x="717" y="358" type="line" />
      <point x="689" y="358" />
      <point x="672" y="357" type="qcurve" />
      <point x="510" y="350" type="line" />
      <point x="510" y="62" type="line" />
    </contour>
  </outline>
</glyph>
<glyph name="Ccedilla" format="2">
  <unicode hex="00C7" />
  <advance width="719" />
  <outline>
    <contour>
      <point x="414" y="-29" type="line" />
      <point x="498" y="-29" />
      <point x="498" y="-101" type="qcurve" />
      <point x="498" y="-139" />
      <point x="440" y="-184" />
      <point x="343" y="-184" />
      <point x="298" y="-162" type="qcurve" />
      <point x="288" y="-156" />
      <point x="288" y="-124" />
      <point x="298" y="-99" />
      <point x="309" y="-99" />
      <point x="322" y="-108" type="qcurve" />
      <point x="351" y="-128" />
      <point x="411" y="-128" />
      <point x="433" y="-117" />
      <point x="433" y="-100" type="qcurve" />
      <point x="433" y="-73" />
      <point x="395" y="-74" type="qcurve" />
      <point x="381" y="-74" />
      <point x="360" y="-78" type="qcurve" />
      <point x="355" y="-78" type="line" />
      <point x="342" y="-78" />
      <point x="323" y="-59" />
      <point x="323" y="-42" />
      <point x="332" y="-15" type="qcurve" />
      <point x="158" y="-2" />
      <point x="88" y="127" type="qcurve" />
      <point x="52" y="195" />
      <point x="52" y="390" />
      <point x="108" y="547" />
      <point x="207" y="665" />
      <point x="340" y="730" />
      <point x="418" y="730" type="qcurve" />
      <point x="571" y="730" />
      <point x="643" y="643" type="qcurve" />
      <point x="646" y="639" />
      <point x="646" y="617" />
      <point x="620" y="583" />
      <point x="596" y="583" />
      <point x="590" y="592" type="qcurve" />
      <point x="543" y="665" />
      <point x="296" y="665" />
      <point x="213" y="563" type="qcurve" />
      <point x="126" y="460" />
      <point x="126" y="131" />
      <point x="244" y="74" type="qcurve" />
      <point x="299" y="46" />
      <point x="419" y="46" />
      <point x="523" y="82" />
      <point x="620" y="147" />
      <point x="651" y="189" type="qcurve" />
      <point x="663" y="204" />
      <point x="690" y="205" />
      <point x="690" y="175" />
      <point x="651" y="114" />
      <point x="614" y="80" type="qcurve" />
      <point x="524" y="-4" />
      <point x="397" y="-15" type="qcurve" />
      <point x="392" y="-30" type="line" />
      <point x="397" y="-29" />
      <point x="403" y="-29" type="qcurve" />
    </contour>
  </outline>
</glyph>
<glyph name="Ecircumflex" format="2">
  <unicode hex="00CA" />
  <advance width="653" />
  <outline>
    <contour>
      <point x="483" y="66" type="line" />
      <point x="522" y="66" />
      <point x="568" y="69" type="qcurve" />
      <point x="569" y="69" type="line" />
      <point x="582" y="69" />
      <point x="602" y="31" />
      <point x="602" y="-2" />
      <point x="591" y="-2" type="qcurve" />
      <point x="590" y="-2" type="line" />
      <point x="565" y="1" />
      <point x="501" y="1" type="qcurve" />
      <point x="484" y="1" type="line" />
      <point x="200" y="-3" type="line" />
      <point x="184" y="-3" />
      <point x="160" y="-10" />
      <point x="130" y="-10" />
      <point x="101" y="26" />
      <point x="101" y="38" type="qcurve" />
      <point x="109" y="86" type="line" />
      <point x="109" y="352" type="line" />
      <point x="98" y="358" />
      <point x="81" y="391" />
      <point x="81" y="414" />
      <point x="89" y="414" type="qcurve" />
      <point x="91" y="414" type="line" />
      <point x="99" y="412" />
      <point x="109" y="412" type="qcurve" />
      <point x="109" y="649" type="line" />
      <point x="104" y="701" type="line" />
      <point x="104" y="715" />
      <point x="133" y="716" />
      <point x="169" y="705" />
      <point x="173" y="702" type="qcurve" />
      <point x="271" y="709" />
      <point x="430" y="719" type="qcurve" />
      <point x="451" y="721" type="line" />
      <point x="475" y="723" />
      <point x="526" y="729" />
      <point x="550" y="729" />
      <point x="570" y="693" />
      <point x="570" y="662" />
      <point x="557" y="662" type="qcurve" />
      <point x="494" y="662" type="line" />
      <point x="466" y="662" />
      <point x="452" y="660" type="qcurve" />
      <point x="178" y="642" type="line" />
      <point x="178" y="413" type="line" />
      <point x="394" y="426" type="line" />
      <point x="418" y="428" />
      <point x="470" y="434" />
      <point x="494" y="434" />
      <point x="514" y="398" />
      <point x="514" y="366" />
      <point x="501" y="366" type="qcurve" />
      <point x="436" y="366" type="line" />
      <point x="409" y="366" />
      <point x="395" y="365" type="qcurve" />
      <point x="178" y="352" type="line" />
      <point x="178" y="60" type="line" />
    </contour>
    <contour>
      <point x="339" y="844" type="qcurve" />
      <point x="236" y="778" />
      <point x="202" y="750" />
      <point x="194" y="750" type="qcurve" />
      <point x="176" y="750" />
      <point x="175" y="781" />
      <point x="258" y="865" type="qcurve" />
      <point x="278" y="887" />
      <point x="302" y="909" />
      <point x="324" y="913" />
      <point x="369" y="913" />
      <point x="393" y="889" />
      <point x="414" y="869" type="qcurve" />
      <point x="502" y="783" />
      <point x="502" y="750" />
      <point x="483" y="750" type="qcurve" />
      <point x="475" y="750" />
      <point x="439" y="782" />
    </contour>
  </outline>
</glyph>
<glyph name="Igrave" format="2">
  <unicode hex="00CC" />
  <advance width="311" />
  <outline>
    <contour>
      <point x="116" y="18" type="qcurve" />
      <point x="118" y="110" type="line" />
      <point x="118" y="603" type="line" />
      <point x="115" y="712" type="line" />
      <point x="115" y="722" />
      <point x="155" y="722" />
      <point x="196" y="707" />
      <point x="196" y="693" type="qcurve" />
      <point x="194" y="602" type="line" />
      <point x="194" y="109" type="line" />
      <point x="197" y="0" type="line" />
      <point x="197" y="-10" />
      <point x="157" y="-10" />
      <point x="116" y="5" />
    </contour>
    <contour>
      <point x="263" y="776" type="qcurve" />
      <point x="263" y="759" />
      <point x="246" y="759" type="qcurve" />
      <point x="241" y="759" />
      <point x="200" y="782" />
      <point x="101" y="817" />
      <point x="50" y="836" type="qcurve" />
      <point x="43" y="839" />
      <point x="43" y="856" />
      <point x="66" y="882" />
      <point x="94" y="901" />
      <point x="108" y="901" />
      <point x="110" y="900" type="qcurve" />
      <point x="225" y="823" />
      <point x="263" y="782" />
    </contour>
  </outline>
</glyph>
<glyph name="Icircumflex" format="2">
  <unicode hex="00CE" />
  <advance width="311" />
  <outline>
    <contour>
      <point x="116" y="18" type="qcurve" />
      <point x="118" y="110" type="line" />
      <point x="118" y="603" type="line" />
      <point x="115" y="712" type="line" />
      <point x="115" y="722" />
      <point x="155" y="722" />
      <point x="196" y="707" />
      <point x="196" y="693" type="qcurve" />
      <point x="194" y="602" type="line" />
      <point x="194" y="109" type="line" />
      <point x="197" y="0" type="line" />
      <point x="197" y="-10" />
      <point x="157" y="-10" />
      <point x="116" y="5" />
    </contour>
    <contour>
      <point x="156" y="844" type="qcurve" />
      <point x="53" y="778" />
      <point x="18" y="750" />
      <point x="10" y="750" type="qcurve" />
      <point x="-8" y="750" />
      <point x="-8" y="781" />
      <point x="74" y="865" type="qcurve" />
      <point x="96" y="887" />
      <point x="119" y="909" />
      <point x="140" y="913" />
      <point x="185" y="913" />
      <point x="198" y="901" type="qcurve" />
      <point x="229" y="869" type="line" />
      <point x="318" y="783" />
      <point x="318" y="750" />
      <point x="300" y="750" type="qcurve" />
      <point x="292" y="750" />
      <point x="256" y="782" />
    </contour>
  </outline>
</glyph>
<glyph name="Eth" format="2">
  <unicode hex="00D0" />
  <advance width="745" />
  <outline>
    <contour>
      <point x="422" y="378" />
      <point x="434" y="351" />
      <point x="434" y="313" />
      <point x="420" y="313" type="qcurve" />
      <point x="340" y="313" type="line" />
      <point x="180" y="310" type="line" />
      <point x="180" y="41" type="line" />
      <point x="331" y="44" />
      <point x="524" y="130" />
      <point x="616" y="275" />
      <point x="616" y="356" type="qcurve" />
      <point x="616" y="503" />
      <point x="425" y="667" />
      <point x="305" y="667" type="qcurve" />
      <point x="239" y="667" />
      <point x="180" y="650" type="qcurve" />
      <point x="180" y="372" type="line" />
      <point x="339" y="375" type="line" />
      <point x="354" y="375" />
      <point x="413" y="378" type="qcurve" />
      <point x="414" y="378" type="line" />
    </contour>
    <contour>
      <point x="39" y="306" />
      <point x="27" y="334" />
      <point x="27" y="371" />
      <point x="42" y="371" type="qcurve" />
      <point x="109" y="371" type="line" />
      <point x="109" y="641" type="line" />
      <point x="95" y="644" />
      <point x="68" y="674" />
      <point x="68" y="694" />
      <point x="75" y="697" type="qcurve" />
      <point x="124" y="716" />
      <point x="250" y="727" type="qcurve" />
      <point x="284" y="729" />
      <point x="310" y="729" type="qcurve" />
      <point x="467" y="729" />
      <point x="689" y="528" />
      <point x="689" y="209" />
      <point x="592" y="113" type="qcurve" />
      <point x="509" y="31" />
      <point x="383" y="8" type="qcurve" />
      <point x="304" y="-6" />
      <point x="187" y="-8" type="qcurve" />
      <point x="173" y="-8" type="line" />
      <point x="52" y="-8" />
      <point x="52" y="15" type="qcurve" />
      <point x="52" y="34" />
      <point x="109" y="35" type="qcurve" />
      <point x="109" y="309" type="line" />
      <point x="48" y="306" type="line" />
      <point x="47" y="306" type="line" />
    </contour>
  </outline>
</glyph>
<glyph name="Ntilde" format="2">
  <unicode hex="00D1" />
  <advance width="755" />
  <outline>
    <contour>
      <point x="109" y="656" type="line" />
      <point x="101" y="694" type="line" />
      <point x="101" y="708" />
      <point x="147" y="725" />
      <point x="169" y="725" />
      <point x="181" y="723" />
      <point x="186" y="715" type="qcurve" />
      <point x="212" y="668" />
      <point x="453" y="283" />
      <point x="580" y="106" type="qcurve" />
      <point x="580" y="603" type="line" />
      <point x="575" y="712" type="line" />
      <point x="575" y="722" />
      <point x="614" y="722" />
      <point x="652" y="707" />
      <point x="652" y="693" type="qcurve" />
      <point x="650" y="602" type="line" />
      <point x="650" y="89" type="line" />
      <point x="654" y="33" type="line" />
      <point x="654" y="23" />
      <point x="645" y="12" type="qcurve" />
      <point x="621" y="-14" />
      <point x="578" y="-13" />
      <point x="558" y="15" />
      <point x="532" y="52" type="qcurve" />
      <point x="335" y="328" />
      <point x="179" y="593" type="qcurve" />
      <point x="179" y="108" type="line" />
      <point x="182" y="-1" type="line" />
      <point x="182" y="-11" />
      <point x="145" y="-11" />
      <point x="106" y="4" />
      <point x="106" y="17" type="qcurve" />
      <point x="109" y="109" type="line" />
    </contour>
    <contour>
      <point x="537" y="866" type="qcurve" />
      <point x="530" y="834" />
      <point x="478" y="777" />
      <point x="409" y="777" />
      <point x="368" y="803" />
      <point x="335" y="829" />
      <point x="315" y="829" type="qcurve" />
      <point x="273" y="829" />
      <point x="253" y="786" type="qcurve" />
      <point x="247" y="774" />
      <point x="240" y="774" type="qcurve" />
      <point x="222" y="774" />
      <point x="221" y="792" type="qcurve" />
      <point x="221" y="806" />
      <point x="245" y="851" />
      <point x="289" y="888" />
      <point x="350" y="888" />
      <point x="391" y="861" />
      <point x="424" y="836" />
      <point x="443" y="836" type="qcurve" />
      <point x="485" y="836" />
      <point x="506" y="879" type="qcurve" />
      <point x="512" y="891" />
      <point x="520" y="891" type="qcurve" />
      <point x="537" y="891" />
      <point x="538" y="873" type="qcurve" />
      <point x="538" y="869" />
    </contour>
  </outline>
</glyph>
<glyph name="Otilde" format="2">
  <unicode hex="00D5" />
  <advance width="762" />
  <outline>
    <contour>
      <point x="176" y="129" />
      <point x="283" y="47" />
      <point x="362" y="47" type="qcurve" />
      <point x="509" y="47" />
      <point x="579" y="148" type="qcurve" />
      <point x="640" y="239" />
      <point x="640" y="380" type="qcurve" />
      <point x="640" y="495" />
      <point x="518" y="669" />
      <point x="409" y="669" type="qcurve" />
      <point x="365" y="669" />
      <point x="265" y="628" />
      <point x="179" y="547" />
      <point x="125" y="426" />
      <point x="125" y="265" />
    </contour>
    <contour>
      <point x="137" y="624" />
      <point x="186" y="674" />
      <point x="218" y="674" />
      <point x="228" y="662" type="qcurve" />
      <point x="306" y="731" />
      <point x="507" y="730" />
      <point x="640" y="637" />
      <point x="712" y="475" />
      <point x="712" y="384" type="qcurve" />
      <point x="712" y="205" />
      <point x="631" y="97" type="qcurve" />
      <point x="542" y="-19" />
      <point x="375" y="-18" type="qcurve" />
      <point x="265" y="-18" />
      <point x="123" y="77" />
      <point x="54" y="241" />
      <point x="54" y="414" />
      <point x="88" y="534" />
    </contour>
    <contour>
      <point x="555" y="866" type="qcurve" />
      <point x="548" y="834" />
      <point x="497" y="777" />
      <point x="427" y="777" />
      <point x="386" y="803" />
      <point x="353" y="829" />
      <point x="334" y="829" type="qcurve" />
      <point x="292" y="829" />
      <point x="271" y="786" type="qcurve" />
      <point x="265" y="774" />
      <point x="258" y="774" type="qcurve" />
      <point x="240" y="774" />
      <point x="240" y="792" type="qcurve" />
      <point x="240" y="806" />
      <point x="263" y="851" />
      <point x="307" y="888" />
      <point x="369" y="888" />
      <point x="410" y="861" />
      <point x="442" y="836" />
      <point x="462" y="836" type="qcurve" />
      <point x="504" y="836" />
      <point x="524" y="879" type="qcurve" />
      <point x="530" y="891" />
      <point x="539" y="891" type="qcurve" />
      <point x="556" y="891" />
      <point x="556" y="873" type="qcurve" />
      <point x="556" y="869" />
    </contour>
  </outline>
</glyph>
<glyph name="multiply" format="2">
  <unicode hex="00D7" />
  <advance width="614" />
  <outline>
    <contour>
      <point x="309" y="209" type="line" />
      <point x="112" y="7" type="line" />
      <point x="108" y="3" />
      <point x="91" y="3" />
      <point x="65" y="37" />
      <point x="65" y="62" />
      <point x="72" y="67" type="qcurve" />
      <point x="121" y="110" />
      <point x="131" y="120" type="qcurve" />
      <point x="264" y="254" type="line" />
      <point x="132" y="387" type="line" />
      <point x="101" y="418" />
      <point x="71" y="444" type="qcurve" />
      <point x="65" y="449" />
      <point x="65" y="476" />
      <point x="86" y="508" />
      <point x="105" y="508" />
      <point x="121" y="492" />
      <point x="158" y="454" />
      <point x="174" y="436" type="qcurve" />
      <point x="309" y="300" type="line" />
      <point x="438" y="428" type="line" />
      <point x="495" y="489" />
      <point x="510" y="500" />
      <point x="513" y="500" type="qcurve" />
      <point x="526" y="500" />
      <point x="548" y="468" />
      <point x="548" y="442" />
      <point x="530" y="426" />
      <point x="494" y="392" />
      <point x="480" y="379" type="qcurve" />
      <point x="355" y="255" type="line" />
      <point x="481" y="129" type="line" />
      <point x="498" y="112" />
      <point x="540" y="76" type="qcurve" />
      <point x="547" y="70" />
      <point x="547" y="44" />
      <point x="523" y="11" />
      <point x="506" y="11" />
      <point x="501" y="16" type="qcurve" />
      <point x="451" y="69" />
      <point x="440" y="79" type="qcurve" />
    </contour>
  </outline>
</glyph>
<glyph name="Ugrave" format="2">
  <unicode hex="00D9" />
  <advance width="727" />
  <outline>
    <contour>
      <point x="184" y="696" type="qcurve" />
      <point x="182" y="598" type="line" />
      <point x="182" y="215" type="line" />
      <point x="182" y="122" />
      <point x="269" y="46" />
      <point x="350" y="46" type="qcurve" />
      <point x="407" y="46" />
      <point x="496" y="98" />
      <point x="546" y="189" />
      <point x="546" y="248" type="qcurve" />
      <point x="546" y="609" type="line" />
      <point x="543" y="714" type="line" />
      <point x="543" y="726" />
      <point x="586" y="726" />
      <point x="622" y="712" />
      <point x="622" y="698" type="qcurve" />
      <point x="620" y="608" type="line" />
      <point x="620" y="236" type="line" />
      <point x="620" y="160" />
      <point x="552" y="45" />
      <point x="431" y="-18" />
      <point x="350" y="-18" type="qcurve" />
      <point x="108" y="-18" />
      <point x="109" y="203" type="qcurve" />
      <point x="109" y="600" type="line" />
      <point x="105" y="712" type="line" />
      <point x="105" y="724" />
      <point x="148" y="724" />
      <point x="184" y="709" />
    </contour>
    <contour>
      <point x="471" y="776" type="qcurve" />
      <point x="471" y="759" />
      <point x="454" y="759" type="qcurve" />
      <point x="449" y="759" />
      <point x="408" y="782" />
      <point x="309" y="817" />
      <point x="258" y="836" type="qcurve" />
      <point x="251" y="839" />
      <point x="251" y="856" />
      <point x="273" y="882" />
      <point x="302" y="901" />
      <point x="315" y="901" />
      <point x="317" y="900" type="qcurve" />
      <point x="471" y="799" />
    </contour>
  </outline>
</glyph>
<glyph name="Uacute" format="2">
  <unicode hex="00DA" />
  <advance width="727" />
  <outline>
    <contour>
      <point x="184" y="696" type="qcurve" />
      <point x="182" y="598" type="line" />
      <point x="182" y="215" type="line" />
      <point x="182" y="122" />
      <point x="269" y="46" />
      <point x="350" y="46" type="qcurve" />
      <point x="407" y="46" />
      <point x="496" y="98" />
      <point x="546" y="189" />
      <point x="546" y="248" type="qcurve" />
      <point x="546" y="609" type="line" />
      <point x="543" y="714" type="line" />
      <point x="543" y="726" />
      <point x="586" y="726" />
      <point x="622" y="712" />
      <point x="622" y="698" type="qcurve" />
      <point x="620" y="608" type="line" />
      <point x="620" y="236" type="line" />
      <point x="620" y="160" />
      <point x="552" y="45" />
      <point x="431" y="-18" />
      <point x="350" y="-18" type="qcurve" />
      <point x="108" y="-18" />
      <point x="109" y="203" type="qcurve" />
      <point x="109" y="600" type="line" />
      <point x="105" y="712" type="line" />
      <point x="105" y="724" />
      <point x="148" y="724" />
      <point x="184" y="709" />
    </contour>
    <contour>
      <point x="481" y="836" type="qcurve" />
      <point x="431" y="818" />
      <point x="332" y="782" />
      <point x="291" y="759" />
      <point x="279" y="759" />
      <point x="268" y="769" />
      <point x="268" y="776" type="qcurve" />
      <point x="268" y="798" />
      <point x="422" y="900" type="qcurve" />
      <point x="424" y="901" />
      <point x="438" y="901" />
      <point x="453" y="891" type="qcurve" />
      <point x="489" y="866" />
      <point x="488" y="846" type="qcurve" />
      <point x="488" y="839" />
    </contour>
  </outline>
</glyph>
<glyph name="Ucircumflex" format="2">
  <unicode hex="00DB" />
  <advance width="727" />
  <outline>
    <contour>
      <point x="184" y="696" type="qcurve" />
      <point x="182" y="598" type="line" />
      <point x="182" y="215" type="line" />
      <point x="182" y="122" />
      <point x="269" y="46" />
      <point x="350" y="46" type="qcurve" />
      <point x="407" y="46" />
      <point x="496" y="98" />
      <point x="546" y="189" />
      <point x="546" y="248" type="qcurve" />
      <point x="546" y="609" type="line" />
      <point x="543" y="714" type="line" />
      <point x="543" y="726" />
      <point x="586" y="726" />
      <point x="622" y="712" />
      <point x="622" y="698" type="qcurve" />
      <point x="620" y="608" type="line" />
      <point x="620" y="236" type="line" />
      <point x="620" y="160" />
      <point x="552" y="45" />
      <point x="431" y="-18" />
      <point x="350" y="-18" type="qcurve" />
      <point x="108" y="-18" />
      <point x="109" y="203" type="qcurve" />
      <point x="109" y="600" type="line" />
      <point x="105" y="712" type="line" />
      <point x="105" y="724" />
      <point x="148" y="724" />
      <point x="184" y="709" />
    </contour>
    <contour>
      <point x="376" y="844" type="qcurve" />
      <point x="273" y="778" />
      <point x="239" y="750" />
      <point x="230" y="750" type="qcurve" />
      <point x="212" y="750" />
      <point x="212" y="781" />
      <point x="295" y="865" type="qcurve" />
      <point x="315" y="887" />
      <point x="339" y="909" />
      <point x="360" y="913" />
      <point x="406" y="913" />
      <point x="430" y="889" />
      <point x="451" y="869" type="qcurve" />
      <point x="539" y="783" />
      <point x="539" y="750" />
      <point x="520" y="750" type="qcurve" />
      <point x="512" y="750" />
      <point x="476" y="782" />
    </contour>
  </outline>
</glyph>
<glyph name="Yacute" format="2">
  <unicode hex="00DD" />
  <advance width="614" />
  <outline>
    <contour>
      <point x="262" y="19" type="qcurve" />
      <point x="264" y="111" type="line" />
      <point x="264" y="299" type="line" />
      <point x="166" y="477" />
      <point x="53" y="641" type="qcurve" />
      <point x="31" y="672" />
      <point x="15" y="692" />
      <point x="15" y="695" type="qcurve" />
      <point x="15" y="706" />
      <point x="53" y="718" />
      <point x="92" y="718" />
      <point x="96" y="712" type="qcurve" />
      <point x="104" y="699" />
      <point x="123" y="663" />
      <point x="173" y="581" />
      <point x="260" y="440" />
      <point x="301" y="369" type="qcurve" />
      <point x="392" y="517" />
      <point x="502" y="691" />
      <point x="515" y="716" type="qcurve" />
      <point x="521" y="726" />
      <point x="558" y="726" />
      <point x="596" y="709" />
      <point x="596" y="699" type="qcurve" />
      <point x="596" y="698" />
      <point x="594" y="694" type="qcurve" />
      <point x="517" y="601" />
      <point x="369" y="353" type="qcurve" />
      <point x="347" y="317" />
      <point x="338" y="300" type="qcurve" />
      <point x="338" y="110" type="line" />
      <point x="341" y="1" type="line" />
      <point x="341" y="-9" />
      <point x="302" y="-9" />
      <point x="262" y="6" />
    </contour>
    <contour>
      <point x="425" y="836" type="qcurve" />
      <point x="375" y="818" />
      <point x="275" y="782" />
      <point x="234" y="759" />
      <point x="222" y="759" />
      <point x="212" y="769" />
      <point x="212" y="776" type="qcurve" />
      <point x="212" y="798" />
      <point x="366" y="900" type="qcurve" />
      <point x="368" y="901" />
      <point x="382" y="901" />
      <point x="395" y="891" type="qcurve" />
      <point x="432" y="866" />
      <point x="432" y="846" type="qcurve" />
      <point x="432" y="839" />
    </contour>
  </outline>
</glyph>
<glyph name="agrave" format="2">
  <unicode hex="00E0" />
  <advance width="602" />
  <outline>
    <contour>
      <point x="130" y="188" type="qcurve" />
      <point x="130" y="44" />
      <point x="230" y="44" type="qcurve" />
      <point x="276" y="44" />
      <point x="322" y="78" type="qcurve" />
      <point x="432" y="158" />
      <point x="431" y="346" type="qcurve" />
      <point x="431" y="373" />
      <point x="432" y="398" type="qcurve" />
      <point x="423" y="389" />
      <point x="410" y="389" />
      <point x="407" y="393" type="qcurve" />
      <point x="375" y="448" />
      <point x="250" y="449" />
      <point x="130" y="298" />
    </contour>
    <contour>
      <point x="493" y="-13" type="qcurve" />
      <point x="450" y="-13" />
      <point x="435" y="124" type="qcurve" />
      <point x="396" y="50" />
      <point x="287" y="-18" />
      <point x="227" y="-18" type="qcurve" />
      <point x="150" y="-18" />
      <point x="58" y="85" />
      <point x="58" y="183" type="qcurve" />
      <point x="58" y="314" />
      <point x="140" y="413" type="qcurve" />
      <point x="177" y="458" />
      <point x="269" y="510" />
      <point x="317" y="510" type="qcurve" />
      <point x="399" y="510" />
      <point x="433" y="440" type="qcurve" />
      <point x="433" y="498" type="line" />
      <point x="433" y="509" />
      <point x="473" y="509" />
      <point x="513" y="494" />
      <point x="513" y="481" type="qcurve" />
      <point x="513" y="479" type="line" />
      <point x="499" y="386" />
      <point x="499" y="205" type="qcurve" />
      <point x="499" y="94" />
      <point x="536" y="37" type="qcurve" />
      <point x="538" y="33" />
      <point x="538" y="18" />
      <point x="510" y="-13" />
    </contour>
    <contour>
      <point x="383" y="585" type="qcurve" />
      <point x="379" y="573" />
      <point x="369" y="572" type="qcurve" />
      <point x="365" y="572" />
      <point x="360" y="573" type="qcurve" />
      <point x="355" y="575" />
      <point x="325" y="612" />
      <point x="284" y="646" type="qcurve" />
      <point x="203" y="714" />
      <point x="199" y="717" type="qcurve" />
      <point x="196" y="720" />
      <point x="196" y="725" type="qcurve" />
      <point x="196" y="727" />
      <point x="197" y="730" type="qcurve" />
      <point x="200" y="738" />
      <point x="215" y="746" type="qcurve" />
      <point x="230" y="755" />
      <point x="247" y="760" type="qcurve" />
      <point x="258" y="762" />
      <point x="264" y="762" type="qcurve" />
      <point x="268" y="762" />
      <point x="270" y="762" type="qcurve" />
      <point x="277" y="759" />
      <point x="280" y="757" type="qcurve" />
      <point x="383" y="617" />
      <point x="383" y="588" type="qcurve" />
      <point x="383" y="586" />
    </contour>
  </outline>
</glyph>
<glyph name="acircumflex" format="2">
  <unicode hex="00E2" />
  <advance width="588" />
  <outline>
    <contour>
      <point x="127" y="184" type="qcurve" />
      <point x="127" y="43" />
      <point x="225" y="43" type="qcurve" />
      <point x="270" y="43" />
      <point x="314" y="76" type="qcurve" />
      <point x="420" y="154" />
      <point x="421" y="338" type="qcurve" />
      <point x="421" y="364" />
      <point x="422" y="389" type="qcurve" />
      <point x="413" y="380" />
      <point x="400" y="380" />
      <point x="397" y="384" type="qcurve" />
      <point x="365" y="438" />
      <point x="244" y="438" />
      <point x="127" y="290" />
    </contour>
    <contour>
      <point x="481" y="-13" type="qcurve" />
      <point x="439" y="-13" />
      <point x="425" y="121" type="qcurve" />
      <point x="387" y="49" />
      <point x="280" y="-18" />
      <point x="222" y="-18" type="qcurve" />
      <point x="147" y="-18" />
      <point x="57" y="83" />
      <point x="57" y="179" type="qcurve" />
      <point x="57" y="307" />
      <point x="137" y="403" type="qcurve" />
      <point x="173" y="447" />
      <point x="263" y="498" />
      <point x="310" y="498" type="qcurve" />
      <point x="390" y="498" />
      <point x="423" y="430" type="qcurve" />
      <point x="423" y="486" type="line" />
      <point x="423" y="496" />
      <point x="462" y="497" />
      <point x="501" y="482" />
      <point x="501" y="470" type="qcurve" />
      <point x="501" y="468" type="line" />
      <point x="488" y="377" />
      <point x="487" y="200" type="qcurve" />
      <point x="487" y="92" />
      <point x="523" y="36" type="qcurve" />
      <point x="525" y="32" />
      <point x="525" y="18" />
      <point x="497" y="-13" />
    </contour>
    <contour>
      <point x="298" y="673" type="qcurve" />
      <point x="195" y="607" />
      <point x="161" y="579" />
      <point x="153" y="579" type="qcurve" />
      <point x="135" y="579" />
      <point x="134" y="610" />
      <point x="217" y="694" type="qcurve" />
      <point x="237" y="716" />
      <point x="261" y="738" />
      <point x="283" y="742" />
      <point x="328" y="742" />
      <point x="352" y="718" />
      <point x="373" y="698" type="qcurve" />
      <point x="461" y="612" />
      <point x="461" y="579" />
      <point x="442" y="579" type="qcurve" />
      <point x="434" y="579" />
      <point x="398" y="611" />
    </contour>
  </outline>
</glyph>
<glyph name="adieresis" format="2">
  <unicode hex="00E4" />
  <advance width="588" />
  <outline>
    <contour>
      <point x="127" y="184" type="qcurve" />
      <point x="127" y="43" />
      <point x="225" y="43" type="qcurve" />
      <point x="270" y="43" />
      <point x="314" y="76" type="qcurve" />
      <point x="420" y="154" />
      <point x="421" y="338" type="qcurve" />
      <point x="421" y="364" />
      <point x="422" y="389" type="qcurve" />
      <point x="413" y="380" />
      <point x="400" y="380" />
      <point x="397" y="384" type="qcurve" />
      <point x="365" y="438" />
      <point x="244" y="438" />
      <point x="127" y="290" />
    </contour>
    <contour>
      <point x="481" y="-13" type="qcurve" />
      <point x="439" y="-13" />
      <point x="425" y="121" type="qcurve" />
      <point x="387" y="49" />
      <point x="280" y="-18" />
      <point x="222" y="-18" type="qcurve" />
      <point x="147" y="-18" />
      <point x="57" y="83" />
      <point x="57" y="179" type="qcurve" />
      <point x="57" y="307" />
      <point x="137" y="403" type="qcurve" />
      <point x="173" y="447" />
      <point x="263" y="498" />
      <point x="310" y="498" type="qcurve" />
      <point x="390" y="498" />
      <point x="423" y="430" type="qcurve" />
      <point x="423" y="486" type="line" />
      <point x="423" y="496" />
      <point x="462" y="497" />
      <point x="501" y="482" />
      <point x="501" y="470" type="qcurve" />
      <point x="501" y="468" type="line" />
      <point x="488" y="377" />
      <point x="487" y="200" type="qcurve" />
      <point x="487" y="92" />
      <point x="523" y="36" type="qcurve" />
      <point x="525" y="32" />
      <point x="525" y="18" />
      <point x="497" y="-13" />
    </contour>
    <contour>
      <point x="253" y="633" />
      <point x="227" y="606" />
      <point x="184" y="606" />
      <point x="150" y="648" />
      <point x="150" y="691" />
      <point x="174" y="718" />
      <point x="217" y="718" />
      <point x="253" y="678" />
    </contour>
    <contour>
      <point x="440" y="633" />
      <point x="415" y="606" />
      <point x="372" y="606" />
      <point x="337" y="648" />
      <point x="337" y="691" />
      <point x="361" y="718" />
      <point x="404" y="718" />
      <point x="440" y="678" />
    </contour>
  </outline>
</glyph>
<glyph name="ae" format="2">
  <unicode hex="00E6" />
  <advance width="921" />
  <outline>
    <contour>
      <point x="129" y="130" type="qcurve" />
      <point x="129" y="44" />
      <point x="246" y="44" type="qcurve" />
      <point x="309" y="44" />
      <point x="410" y="133" />
      <point x="421" y="222" type="qcurve" />
      <point x="288" y="216" />
      <point x="197" y="190" type="qcurve" />
      <point x="156" y="179" />
      <point x="129" y="154" />
    </contour>
    <contour>
      <point x="482" y="366" type="qcurve" />
      <point x="493" y="383" />
      <point x="507" y="400" type="qcurve" />
      <point x="586" y="497" />
      <point x="691" y="498" type="qcurve" />
      <point x="754" y="498" />
      <point x="793" y="475" type="qcurve" />
      <point x="862" y="435" />
      <point x="861" y="348" type="qcurve" />
      <point x="861" y="318" />
      <point x="854" y="297" type="qcurve" />
      <point x="832" y="231" />
      <point x="663" y="210" type="qcurve" />
      <point x="606" y="203" />
      <point x="534" y="203" type="qcurve" />
      <point x="495" y="204" type="line" />
      <point x="495" y="149" />
      <point x="532" y="78" />
      <point x="588" y="45" />
      <point x="614" y="45" type="qcurve" />
      <point x="753" y="45" />
      <point x="830" y="128" type="qcurve" />
      <point x="843" y="143" />
      <point x="864" y="143" />
      <point x="864" y="122" />
      <point x="835" y="75" />
      <point x="804" y="47" type="qcurve" />
      <point x="729" y="-19" />
      <point x="614" y="-18" type="qcurve" />
      <point x="553" y="-18" />
      <point x="504" y="18" type="qcurve" />
      <point x="467" y="44" />
      <point x="446" y="85" type="qcurve" />
      <point x="418" y="41" />
      <point x="375" y="13" type="qcurve" />
      <point x="324" y="-19" />
      <point x="178" y="-18" />
      <point x="97" y="26" />
      <point x="60" y="94" />
      <point x="60" y="174" />
      <point x="102" y="229" />
      <point x="159" y="244" type="qcurve" />
      <point x="282" y="276" />
      <point x="424" y="275" type="qcurve" />
      <point x="422" y="390" />
      <point x="359" y="422" type="qcurve" />
      <point x="330" y="436" />
      <point x="250" y="436" />
      <point x="219" y="423" type="qcurve" />
      <point x="168" y="400" />
      <point x="140" y="353" type="qcurve" />
      <point x="136" y="346" />
      <point x="116" y="346" />
      <point x="85" y="381" />
      <point x="85" y="393" type="qcurve" />
      <point x="85" y="421" />
      <point x="203" y="498" />
      <point x="292" y="498" type="qcurve" />
      <point x="404" y="498" />
      <point x="453" y="429" type="qcurve" />
      <point x="472" y="402" />
    </contour>
    <contour>
      <point x="501" y="260" type="qcurve" />
      <point x="502" y="259" />
      <point x="504" y="258" type="qcurve" />
      <point x="633" y="258" />
      <point x="725" y="285" type="qcurve" />
      <point x="769" y="297" />
      <point x="794" y="326" />
      <point x="794" y="349" type="qcurve" />
      <point x="794" y="392" />
      <point x="735" y="436" />
      <point x="694" y="436" type="qcurve" />
      <point x="619" y="436" />
      <point x="515" y="322" />
    </contour>
  </outline>
</glyph>
<glyph name="ecircumflex" format="2">
  <unicode hex="00EA" />
  <advance width="556" />
  <outline>
    <contour>
      <point x="159" y="258" type="line" />
      <point x="274" y="258" />
      <point x="371" y="285" type="qcurve" />
      <point x="408" y="296" />
      <point x="429" y="323" />
      <point x="429" y="349" type="qcurve" />
      <point x="429" y="438" />
      <point x="326" y="438" type="qcurve" />
      <point x="255" y="438" />
      <point x="153" y="321" />
      <point x="138" y="258" type="qcurve" />
    </contour>
    <contour>
      <point x="60" y="260" type="qcurve" />
      <point x="71" y="261" type="line" />
      <point x="86" y="342" />
      <point x="231" y="498" />
      <point x="327" y="498" type="qcurve" />
      <point x="390" y="498" />
      <point x="428" y="475" type="qcurve" />
      <point x="497" y="435" />
      <point x="497" y="348" type="qcurve" />
      <point x="497" y="313" />
      <point x="485" y="272" />
      <point x="444" y="247" />
      <point x="398" y="232" type="qcurve" />
      <point x="296" y="200" />
      <point x="143" y="201" type="qcurve" />
      <point x="130" y="201" type="line" />
      <point x="130" y="190" type="line" />
      <point x="130" y="123" />
      <point x="199" y="42" />
      <point x="257" y="42" type="qcurve" />
      <point x="386" y="42" />
      <point x="466" y="128" type="qcurve" />
      <point x="479" y="143" />
      <point x="500" y="143" />
      <point x="500" y="122" />
      <point x="470" y="75" />
      <point x="439" y="47" type="qcurve" />
      <point x="364" y="-19" />
      <point x="250" y="-18" type="qcurve" />
      <point x="198" y="-18" />
      <point x="113" y="34" />
      <point x="63" y="132" />
      <point x="63" y="200" type="qcurve" />
      <point x="63" y="214" type="line" />
      <point x="40" y="231" />
      <point x="41" y="260" />
    </contour>
    <contour>
      <point x="282" y="673" type="qcurve" />
      <point x="179" y="607" />
      <point x="144" y="579" />
      <point x="136" y="579" type="qcurve" />
      <point x="118" y="579" />
      <point x="118" y="610" />
      <point x="201" y="694" type="qcurve" />
      <point x="221" y="716" />
      <point x="245" y="738" />
      <point x="266" y="742" />
      <point x="311" y="742" />
      <point x="336" y="718" />
      <point x="356" y="698" type="qcurve" />
      <point x="444" y="612" />
      <point x="444" y="579" />
      <point x="426" y="579" type="qcurve" />
      <point x="418" y="579" />
      <point x="382" y="611" />
    </contour>
  </outline>
</glyph>
<glyph name="igrave" format="2">
  <unicode hex="00EC" />
  <advance width="275" />
  <outline>
    <contour>
      <point x="99" y="17" type="qcurve" />
      <point x="101" y="111" type="line" />
      <point x="101" y="386" type="line" />
      <point x="98" y="498" type="line" />
      <point x="98" y="508" />
      <point x="136" y="508" />
      <point x="176" y="492" />
      <point x="176" y="479" type="qcurve" />
      <point x="174" y="386" type="line" />
      <point x="174" y="111" type="line" />
      <point x="177" y="-1" type="line" />
      <point x="177" y="-10" />
      <point x="140" y="-10" />
      <point x="99" y="5" />
    </contour>
    <contour>
      <point x="223" y="585" type="qcurve" />
      <point x="219" y="573" />
      <point x="208" y="572" type="qcurve" />
      <point x="205" y="572" />
      <point x="200" y="574" type="qcurve" />
      <point x="195" y="576" />
      <point x="179" y="594" type="qcurve" />
      <point x="164" y="612" />
      <point x="123" y="646" type="qcurve" />
      <point x="80" y="679" />
      <point x="39" y="717" type="qcurve" />
      <point x="36" y="720" />
      <point x="36" y="725" type="qcurve" />
      <point x="36" y="727" />
      <point x="37" y="730" type="qcurve" />
      <point x="40" y="738" />
      <point x="54" y="748" type="qcurve" />
      <point x="69" y="756" />
      <point x="87" y="760" type="qcurve" />
      <point x="98" y="763" />
      <point x="104" y="763" type="qcurve" />
      <point x="108" y="763" />
      <point x="111" y="762" type="qcurve" />
      <point x="117" y="759" />
      <point x="119" y="758" type="qcurve" />
      <point x="202" y="643" />
      <point x="214" y="616" type="qcurve" />
      <point x="223" y="593" />
      <point x="223" y="587" type="qcurve" />
      <point x="223" y="587" />
    </contour>
  </outline>
</glyph>
<glyph name="icircumflex" format="2">
  <unicode hex="00EE" />
  <advance width="269" />
  <outline>
    <contour>
      <point x="97" y="17" type="qcurve" />
      <point x="99" y="108" type="line" />
      <point x="99" y="377" type="line" />
      <point x="96" y="486" type="line" />
      <point x="96" y="495" />
      <point x="133" y="496" />
      <point x="172" y="480" />
      <point x="172" y="468" type="qcurve" />
      <point x="170" y="377" type="line" />
      <point x="170" y="108" type="line" />
      <point x="173" y="-1" type="line" />
      <point x="173" y="-10" />
      <point x="137" y="-10" />
      <point x="97" y="5" />
    </contour>
    <contour>
      <point x="137" y="673" type="qcurve" />
      <point x="34" y="607" />
      <point x="0" y="579" />
      <point x="-8" y="579" type="qcurve" />
      <point x="-26" y="579" />
      <point x="-27" y="610" />
      <point x="55" y="694" type="qcurve" />
      <point x="77" y="716" />
      <point x="100" y="738" />
      <point x="122" y="742" />
      <point x="167" y="742" />
      <point x="179" y="730" type="qcurve" />
      <point x="211" y="698" type="line" />
      <point x="300" y="612" />
      <point x="300" y="579" />
      <point x="282" y="579" type="qcurve" />
      <point x="274" y="579" />
      <point x="237" y="611" />
    </contour>
  </outline>
</glyph>
<glyph name="idieresis" format="2">
  <unicode hex="00EF" />
  <advance width="269" />
  <outline>
    <contour>
      <point x="97" y="17" type="qcurve" />
      <point x="99" y="108" type="line" />
      <point x="99" y="377" type="line" />
      <point x="96" y="486" type="line" />
      <point x="96" y="495" />
      <point x="133" y="496" />
      <point x="172" y="480" />
      <point x="172" y="468" type="qcurve" />
      <point x="170" y="377" type="line" />
      <point x="170" y="108" type="line" />
      <point x="173" y="-1" type="line" />
      <point x="173" y="-10" />
      <point x="137" y="-10" />
      <point x="97" y="5" />
    </contour>
    <contour>
      <point x="92" y="633" />
      <point x="67" y="606" />
      <point x="24" y="606" />
      <point x="-11" y="648" />
      <point x="-11" y="691" />
      <point x="13" y="718" />
      <point x="56" y="718" />
      <point x="92" y="678" />
    </contour>
    <contour>
      <point x="280" y="633" />
      <point x="254" y="606" />
      <point x="211" y="606" />
      <point x="176" y="648" />
      <point x="176" y="691" />
      <point x="201" y="718" />
      <point x="244" y="718" />
      <point x="280" y="678" />
    </contour>
  </outline>
</glyph>
<glyph name="eth" format="2">
  <unicode hex="00F0" />
  <advance width="636" />
  <outline>
    <contour>
      <point x="484" y="354" type="qcurve" />
      <point x="480" y="352" />
      <point x="468" y="352" />
      <point x="435" y="384" />
      <point x="359" y="411" />
      <point x="281" y="411" />
      <point x="209" y="359" />
      <point x="163" y="269" />
      <point x="163" y="138" />
      <point x="240" y="47" />
      <point x="308" y="47" type="qcurve" />
      <point x="359" y="47" />
      <point x="442" y="100" />
      <point x="490" y="203" />
      <point x="490" y="319" />
    </contour>
    <contour>
      <point x="406" y="621" type="line" />
      <point x="416" y="611" type="line" />
      <point x="476" y="558" />
      <point x="556" y="395" />
      <point x="556" y="279" type="qcurve" />
      <point x="556" y="197" />
      <point x="499" y="61" />
      <point x="387" y="-18" />
      <point x="243" y="-18" />
      <point x="145" y="42" />
      <point x="91" y="144" />
      <point x="91" y="283" />
      <point x="153" y="401" />
      <point x="256" y="471" />
      <point x="311" y="471" type="qcurve" />
      <point x="406" y="471" />
      <point x="469" y="419" type="qcurve" />
      <point x="461" y="446" />
      <point x="408" y="538" />
      <point x="344" y="588" type="qcurve" />
      <point x="266" y="547" type="line" />
      <point x="252" y="540" />
      <point x="194" y="506" />
      <point x="191" y="506" type="qcurve" />
      <point x="180" y="506" />
      <point x="152" y="542" />
      <point x="152" y="566" />
      <point x="163" y="571" type="qcurve" />
      <point x="197" y="584" />
      <point x="233" y="604" type="qcurve" />
      <point x="279" y="629" type="line" />
      <point x="218" y="661" />
      <point x="162" y="671" type="qcurve" />
      <point x="149" y="674" />
      <point x="148" y="707" />
      <point x="169" y="740" />
      <point x="203" y="740" />
      <point x="313" y="689" />
      <point x="349" y="666" type="qcurve" />
      <point x="474" y="734" type="line" />
      <point x="478" y="736" />
      <point x="480" y="736" type="qcurve" />
      <point x="492" y="736" />
      <point x="521" y="701" />
      <point x="521" y="678" />
      <point x="514" y="674" type="qcurve" />
      <point x="495" y="665" />
      <point x="455" y="647" />
      <point x="440" y="639" type="qcurve" />
    </contour>
  </outline>
</glyph>
<glyph name="ntilde" format="2">
  <unicode hex="00F1" />
  <advance width="602" />
  <outline>
    <contour>
      <point x="508" y="108" type="line" />
      <point x="511" y="-1" type="line" />
      <point x="511" y="-11" />
      <point x="475" y="-11" />
      <point x="438" y="4" />
      <point x="438" y="16" type="qcurve" />
      <point x="438" y="17" type="line" />
      <point x="439" y="25" />
      <point x="439" y="45" type="qcurve" />
      <point x="440" y="118" type="line" />
      <point x="440" y="300" type="line" />
      <point x="440" y="360" />
      <point x="408" y="433" />
      <point x="356" y="433" type="qcurve" />
      <point x="275" y="433" />
      <point x="166" y="315" />
      <point x="164" y="166" type="qcurve" />
      <point x="163" y="132" />
      <point x="162" y="108" type="qcurve" />
      <point x="162" y="91" type="line" />
      <point x="162" y="60" />
      <point x="165" y="-1" type="qcurve" />
      <point x="165" y="-11" />
      <point x="129" y="-11" />
      <point x="92" y="4" />
      <point x="92" y="17" type="qcurve" />
      <point x="94" y="118" type="line" />
      <point x="94" y="373" type="line" />
      <point x="91" y="482" type="line" />
      <point x="91" y="492" />
      <point x="127" y="493" />
      <point x="164" y="477" />
      <point x="164" y="464" type="qcurve" />
      <point x="164" y="450" type="line" />
      <point x="162" y="421" />
      <point x="162" y="385" type="qcurve" />
      <point x="195" y="439" />
      <point x="300" y="497" />
      <point x="352" y="497" type="qcurve" />
      <point x="446" y="497" />
      <point x="481" y="432" type="qcurve" />
      <point x="508" y="385" />
      <point x="508" y="304" type="qcurve" />
    </contour>
    <contour>
      <point x="459" y="695" type="qcurve" />
      <point x="452" y="663" />
      <point x="400" y="606" />
      <point x="331" y="606" />
      <point x="290" y="632" />
      <point x="257" y="658" />
      <point x="238" y="658" type="qcurve" />
      <point x="196" y="658" />
      <point x="175" y="615" type="qcurve" />
      <point x="169" y="603" />
      <point x="162" y="603" type="qcurve" />
      <point x="144" y="603" />
      <point x="143" y="621" type="qcurve" />
      <point x="143" y="635" />
      <point x="167" y="680" />
      <point x="211" y="717" />
      <point x="272" y="717" />
      <point x="313" y="690" />
      <point x="346" y="665" />
      <point x="366" y="665" type="qcurve" />
      <point x="408" y="665" />
      <point x="428" y="708" type="qcurve" />
      <point x="434" y="720" />
      <point x="442" y="720" type="qcurve" />
      <point x="459" y="720" />
      <point x="460" y="702" type="qcurve" />
      <point x="460" y="698" />
    </contour>
  </outline>
</glyph>
<glyph name="oacute" format="2">
  <unicode hex="00F3" />
  <advance width="588" />
  <outline>
    <contour>
      <point x="231" y="591" type="qcurve" />
      <point x="213" y="591" />
      <point x="194" y="607" type="qcurve" />
      <point x="179" y="619" />
      <point x="178" y="633" type="qcurve" />
      <point x="178" y="635" />
      <point x="178" y="638" type="qcurve" />
      <point x="179" y="643" />
      <point x="184" y="647" type="qcurve" />
      <point x="354" y="787" type="line" />
      <point x="362" y="794" />
      <point x="371" y="795" type="qcurve" />
      <point x="381" y="795" />
      <point x="392" y="779" />
      <point x="392" y="773" type="qcurve" />
      <point x="392" y="766" />
      <point x="387" y="761" type="qcurve" />
      <point x="250" y="598" type="line" />
      <point x="243" y="591" />
    </contour>
    <contour>
      <point x="280" y="45" type="qcurve" />
      <point x="332" y="45" />
      <point x="412" y="100" />
      <point x="461" y="198" />
      <point x="461" y="344" />
      <point x="392" y="446" />
      <point x="239" y="446" />
      <point x="129" y="303" />
      <point x="129" y="132" />
      <point x="208" y="45" />
    </contour>
    <contour>
      <point x="204" y="467" type="qcurve" />
      <point x="261" y="510" />
      <point x="387" y="510" />
      <point x="433" y="479" type="qcurve" />
      <point x="530" y="416" />
      <point x="530" y="257" type="qcurve" />
      <point x="530" y="149" />
      <point x="466" y="70" type="qcurve" />
      <point x="396" y="-18" />
      <point x="175" y="-18" />
      <point x="58" y="108" />
      <point x="58" y="217" type="qcurve" />
      <point x="58" y="301" />
      <point x="112" y="392" type="qcurve" />
      <point x="132" y="430" />
      <point x="174" y="476" />
      <point x="196" y="476" />
    </contour>
  </outline>
</glyph>
<glyph name="ocircumflex" format="2">
  <unicode hex="00F4" />
  <advance width="575" />
  <outline>
    <contour>
      <point x="273" y="44" type="qcurve" />
      <point x="323" y="44" />
      <point x="402" y="98" />
      <point x="450" y="193" />
      <point x="450" y="336" />
      <point x="383" y="436" />
      <point x="233" y="436" />
      <point x="126" y="296" />
      <point x="126" y="129" />
      <point x="202" y="44" />
    </contour>
    <contour>
      <point x="199" y="456" type="qcurve" />
      <point x="255" y="498" />
      <point x="378" y="498" />
      <point x="423" y="468" type="qcurve" />
      <point x="518" y="406" />
      <point x="518" y="251" type="qcurve" />
      <point x="518" y="147" />
      <point x="455" y="68" type="qcurve" />
      <point x="387" y="-18" />
      <point x="171" y="-18" />
      <point x="57" y="105" />
      <point x="57" y="212" type="qcurve" />
      <point x="57" y="294" />
      <point x="109" y="383" type="qcurve" />
      <point x="129" y="420" />
      <point x="170" y="465" />
      <point x="192" y="465" />
    </contour>
    <contour>
      <point x="312" y="673" type="qcurve" />
      <point x="209" y="607" />
      <point x="175" y="579" />
      <point x="167" y="579" type="qcurve" />
      <point x="149" y="579" />
      <point x="148" y="610" />
      <point x="231" y="694" type="qcurve" />
      <point x="251" y="716" />
      <point x="275" y="738" />
      <point x="297" y="742" />
      <point x="342" y="742" />
      <point x="367" y="718" />
      <point x="387" y="698" type="qcurve" />
      <point x="475" y="612" />
      <point x="475" y="579" />
      <point x="457" y="579" type="qcurve" />
      <point x="449" y="579" />
      <point x="412" y="611" />
    </contour>
  </outline>
</glyph>
<glyph name="otilde" format="2">
  <unicode hex="00F5" />
  <advance width="575" />
  <outline>
    <contour>
      <point x="273" y="44" type="qcurve" />
      <point x="323" y="44" />
      <point x="402" y="98" />
      <point x="450" y="193" />
      <point x="450" y="336" />
      <point x="383" y="436" />
      <point x="233" y="436" />
      <point x="126" y="296" />
      <point x="126" y="129" />
      <point x="202" y="44" />
    </contour>
    <contour>
      <point x="199" y="456" type="qcurve" />
      <point x="255" y="498" />
      <point x="378" y="498" />
      <point x="423" y="468" type="qcurve" />
      <point x="518" y="406" />
      <point x="518" y="251" type="qcurve" />
      <point x="518" y="147" />
      <point x="455" y="68" type="qcurve" />
      <point x="387" y="-18" />
      <point x="171" y="-18" />
      <point x="57" y="105" />
      <point x="57" y="212" type="qcurve" />
      <point x="57" y="294" />
      <point x="109" y="383" type="qcurve" />
      <point x="129" y="420" />
      <point x="170" y="465" />
      <point x="192" y="465" />
    </contour>
    <contour>
      <point x="462" y="695" type="qcurve" />
      <point x="455" y="663" />
      <point x="403" y="606" />
      <point x="334" y="606" />
      <point x="293" y="632" />
      <point x="260" y="658" />
      <point x="241" y="658" type="qcurve" />
      <point x="199" y="658" />
      <point x="178" y="615" type="qcurve" />
      <point x="172" y="603" />
      <point x="164" y="603" type="qcurve" />
      <point x="147" y="603" />
      <point x="146" y="621" type="qcurve" />
      <point x="146" y="635" />
      <point x="170" y="680" />
      <point x="214" y="717" />
      <point x="275" y="717" />
      <point x="316" y="690" />
      <point x="349" y="665" />
      <point x="369" y="665" type="qcurve" />
      <point x="411" y="665" />
      <point x="431" y="708" type="qcurve" />
      <point x="437" y="720" />
      <point x="444" y="720" type="qcurve" />
      <point x="462" y="720" />
      <point x="463" y="702" type="qcurve" />
      <point x="463" y="698" />
    </contour>
  </outline>
</glyph>
<glyph name="divide" format="2">
  <unicode hex="00F7" />
  <advance width="614" />
  <outline>
    <contour>
      <point x="372" y="32" />
      <point x="340" y="-1" />
      <point x="294" y="-1" />
      <point x="261" y="24" />
      <point x="241" y="60" />
      <point x="241" y="108" />
      <point x="271" y="141" />
      <point x="317" y="141" />
      <point x="334" y="129" type="qcurve" />
      <point x="372" y="99" />
    </contour>
    <contour>
      <point x="481" y="294" type="line" />
      <point x="488" y="294" />
      <point x="553" y="297" type="qcurve" />
      <point x="554" y="297" type="line" />
      <point x="566" y="297" />
      <point x="582" y="268" />
      <point x="582" y="254" type="qcurve" />
      <point x="582" y="228" />
      <point x="563" y="228" type="qcurve" />
      <point x="480" y="230" type="line" />
      <point x="133" y="230" type="line" />
      <point x="75" y="230" />
      <point x="56" y="227" type="qcurve" />
      <point x="54" y="227" type="line" />
      <point x="44" y="227" />
      <point x="31" y="255" />
      <point x="31" y="269" type="qcurve" />
      <point x="31" y="296" />
      <point x="50" y="296" type="qcurve" />
      <point x="81" y="294" />
      <point x="134" y="294" type="qcurve" />
    </contour>
    <contour>
      <point x="372" y="415" />
      <point x="340" y="382" />
      <point x="294" y="382" />
      <point x="261" y="407" />
      <point x="241" y="443" />
      <point x="241" y="490" />
      <point x="271" y="524" />
      <point x="317" y="524" />
      <point x="334" y="512" type="qcurve" />
      <point x="372" y="482" />
    </contour>
  </outline>
</glyph>
<glyph name="ugrave" format="2">
  <unicode hex="00F9" />
  <advance width="618" />
  <outline>
    <contour>
      <point x="170" y="478" type="qcurve" />
      <point x="168" y="386" type="line" />
      <point x="168" y="183" type="line" />
      <point x="168" y="123" />
      <point x="212" y="44" />
      <point x="297" y="44" />
      <point x="382" y="114" />
      <point x="446" y="247" />
      <point x="446" y="358" type="qcurve" />
      <point x="446" y="498" type="line" />
      <point x="446" y="509" />
      <point x="486" y="509" />
      <point x="524" y="494" />
      <point x="524" y="481" type="qcurve" />
      <point x="524" y="479" type="line" />
      <point x="512" y="403" />
      <point x="512" y="101" />
      <point x="552" y="37" type="qcurve" />
      <point x="553" y="35" />
      <point x="553" y="18" />
      <point x="524" y="-13" />
      <point x="509" y="-13" type="qcurve" />
      <point x="482" y="-13" />
      <point x="456" y="79" />
      <point x="453" y="120" type="qcurve" />
      <point x="425" y="62" />
      <point x="318" y="-18" />
      <point x="193" y="-18" />
      <point x="160" y="9" type="qcurve" />
      <point x="97" y="60" />
      <point x="96" y="179" type="qcurve" />
      <point x="96" y="386" type="line" />
      <point x="93" y="497" type="line" />
      <point x="93" y="508" />
      <point x="131" y="508" />
      <point x="170" y="491" />
    </contour>
    <contour>
      <point x="391" y="584" type="qcurve" />
      <point x="387" y="573" />
      <point x="377" y="572" type="qcurve" />
      <point x="373" y="572" />
      <point x="368" y="574" type="qcurve" />
      <point x="363" y="575" />
      <point x="347" y="594" type="qcurve" />
      <point x="332" y="612" />
      <point x="291" y="646" type="qcurve" />
      <point x="250" y="680" />
      <point x="207" y="717" type="qcurve" />
      <point x="203" y="720" />
      <point x="203" y="726" type="qcurve" />
      <point x="203" y="728" />
      <point x="204" y="730" type="qcurve" />
      <point x="207" y="738" />
      <point x="222" y="748" type="qcurve" />
      <point x="237" y="756" />
      <point x="255" y="760" type="qcurve" />
      <point x="266" y="762" />
      <point x="272" y="762" type="qcurve" />
      <point x="276" y="762" />
      <point x="279" y="762" type="qcurve" />
      <point x="285" y="759" />
      <point x="287" y="758" type="qcurve" />
      <point x="391" y="617" />
      <point x="391" y="588" type="qcurve" />
      <point x="391" y="586" />
    </contour>
  </outline>
</glyph>
<glyph name="uacute" format="2">
  <unicode hex="00FA" />
  <advance width="618" />
  <outline>
    <contour>
      <point x="245" y="591" type="qcurve" />
      <point x="227" y="591" />
      <point x="207" y="607" type="qcurve" />
      <point x="192" y="619" />
      <point x="191" y="633" type="qcurve" />
      <point x="191" y="635" />
      <point x="191" y="638" type="qcurve" />
      <point x="192" y="643" />
      <point x="198" y="647" type="qcurve" />
      <point x="368" y="787" type="line" />
      <point x="376" y="794" />
      <point x="384" y="795" type="qcurve" />
      <point x="394" y="795" />
      <point x="406" y="779" />
      <point x="406" y="773" type="qcurve" />
      <point x="406" y="766" />
      <point x="400" y="761" type="qcurve" />
      <point x="263" y="598" type="line" />
      <point x="257" y="591" />
    </contour>
    <contour>
      <point x="170" y="478" type="qcurve" />
      <point x="168" y="386" type="line" />
      <point x="168" y="183" type="line" />
      <point x="168" y="123" />
      <point x="212" y="44" />
      <point x="297" y="44" />
      <point x="382" y="114" />
      <point x="446" y="247" />
      <point x="446" y="358" type="qcurve" />
      <point x="446" y="498" type="line" />
      <point x="446" y="509" />
      <point x="486" y="509" />
      <point x="524" y="494" />
      <point x="524" y="481" type="qcurve" />
      <point x="524" y="479" type="line" />
      <point x="512" y="403" />
      <point x="512" y="101" />
      <point x="552" y="37" type="qcurve" />
      <point x="553" y="35" />
      <point x="553" y="18" />
      <point x="524" y="-13" />
      <point x="509" y="-13" type="qcurve" />
      <point x="482" y="-13" />
      <point x="456" y="79" />
      <point x="453" y="120" type="qcurve" />
      <point x="425" y="62" />
      <point x="318" y="-18" />
      <point x="193" y="-18" />
      <point x="160" y="9" type="qcurve" />
      <point x="97" y="60" />
      <point x="96" y="179" type="qcurve" />
      <point x="96" y="386" type="line" />
      <point x="93" y="497" type="line" />
      <point x="93" y="508" />
      <point x="131" y="508" />
      <point x="170" y="491" />
    </contour>
  </outline>
</glyph>
<glyph name="udieresis" format="2">
  <unicode hex="00FC" />
  <advance width="604" />
  <outline>
    <contour>
      <point x="166" y="467" type="qcurve" />
      <point x="164" y="377" type="line" />
      <point x="164" y="179" type="line" />
      <point x="164" y="120" />
      <point x="207" y="43" />
      <point x="290" y="43" />
      <point x="373" y="111" />
      <point x="436" y="241" />
      <point x="436" y="350" type="qcurve" />
      <point x="436" y="486" type="line" />
      <point x="436" y="496" />
      <point x="475" y="497" />
      <point x="512" y="482" />
      <point x="512" y="470" type="qcurve" />
      <point x="512" y="468" type="line" />
      <point x="500" y="394" />
      <point x="500" y="99" />
      <point x="539" y="36" type="qcurve" />
      <point x="540" y="34" />
      <point x="540" y="18" />
      <point x="512" y="-13" />
      <point x="497" y="-13" type="qcurve" />
      <point x="471" y="-13" />
      <point x="445" y="77" />
      <point x="442" y="117" type="qcurve" />
      <point x="414" y="61" />
      <point x="311" y="-18" />
      <point x="188" y="-18" />
      <point x="156" y="9" type="qcurve" />
      <point x="95" y="59" />
      <point x="94" y="175" type="qcurve" />
      <point x="94" y="377" type="line" />
      <point x="91" y="485" type="line" />
      <point x="91" y="495" />
      <point x="128" y="496" />
      <point x="166" y="480" />
    </contour>
    <contour>
      <point x="260" y="633" />
      <point x="234" y="606" />
      <point x="191" y="606" />
      <point x="157" y="648" />
      <point x="157" y="691" />
      <point x="181" y="718" />
      <point x="224" y="718" />
      <point x="260" y="678" />
    </contour>
    <contour>
      <point x="447" y="633" />
      <point x="422" y="606" />
      <point x="379" y="606" />
      <point x="344" y="648" />
      <point x="344" y="691" />
      <point x="369" y="718" />
      <point x="412" y="718" />
      <point x="447" y="678" />
    </contour>
  </outline>
</glyph>
<glyph name="thorn" format="2">
  <unicode hex="00FE" />
  <advance width="585" />
  <outline>
    <contour>
      <point x="161" y="103" type="qcurve" />
      <point x="165" y="105" />
      <point x="168" y="105" type="qcurve" />
      <point x="179" y="105" />
      <point x="195" y="83" type="qcurve" />
      <point x="223" y="42" />
      <point x="343" y="42" />
      <point x="461" y="173" />
      <point x="461" y="383" />
      <point x="406" y="420" type="qcurve" />
      <point x="382" y="436" />
      <point x="312" y="436" />
      <point x="236" y="391" />
      <point x="170" y="296" />
      <point x="164" y="214" type="qcurve" />
      <point x="161" y="171" />
    </contour>
    <contour>
      <point x="92" y="-147" type="qcurve" />
      <point x="94" y="-56" type="line" />
      <point x="94" y="610" type="line" />
      <point x="94" y="664" />
      <point x="91" y="717" type="qcurve" />
      <point x="91" y="727" />
      <point x="128" y="727" />
      <point x="166" y="712" />
      <point x="166" y="698" type="qcurve" />
      <point x="162" y="620" type="line" />
      <point x="162" y="378" type="line" />
      <point x="203" y="448" />
      <point x="299" y="498" />
      <point x="355" y="498" type="qcurve" />
      <point x="432" y="498" />
      <point x="530" y="389" />
      <point x="530" y="199" />
      <point x="466" y="61" />
      <point x="355" y="-17" />
      <point x="286" y="-17" type="qcurve" />
      <point x="250" y="-17" />
      <point x="178" y="17" />
      <point x="162" y="39" type="qcurve" />
      <point x="162" y="-57" type="line" />
      <point x="167" y="-166" type="line" />
      <point x="167" y="-176" />
      <point x="130" y="-176" />
      <point x="92" y="-160" />
    </contour>
  </outline>
</glyph>
<glyph name="amacron" format="2">
  <unicode hex="0101" />
  <advance width="588" />
  <outline>
    <contour>
      <point x="127" y="184" type="qcurve" />
      <point x="127" y="43" />
      <point x="225" y="43" type="qcurve" />
      <point x="270" y="43" />
      <point x="314" y="76" type="qcurve" />
      <point x="420" y="154" />
      <point x="421" y="338" type="qcurve" />
      <point x="421" y="364" />
      <point x="422" y="389" type="qcurve" />
      <point x="413" y="380" />
      <point x="400" y="380" />
      <point x="397" y="384" type="qcurve" />
      <point x="365" y="438" />
      <point x="244" y="438" />
      <point x="127" y="290" />
    </contour>
    <contour>
      <point x="481" y="-13" type="qcurve" />
      <point x="439" y="-13" />
      <point x="425" y="121" type="qcurve" />
      <point x="387" y="49" />
      <point x="280" y="-18" />
      <point x="222" y="-18" type="qcurve" />
      <point x="147" y="-18" />
      <point x="57" y="83" />
      <point x="57" y="179" type="qcurve" />
      <point x="57" y="307" />
      <point x="137" y="403" type="qcurve" />
      <point x="173" y="447" />
      <point x="263" y="498" />
      <point x="310" y="498" type="qcurve" />
      <point x="390" y="498" />
      <point x="423" y="430" type="qcurve" />
      <point x="423" y="486" type="line" />
      <point x="423" y="496" />
      <point x="462" y="497" />
      <point x="501" y="482" />
      <point x="501" y="470" type="qcurve" />
      <point x="501" y="468" type="line" />
      <point x="488" y="377" />
      <point x="487" y="200" type="qcurve" />
      <point x="487" y="92" />
      <point x="523" y="36" type="qcurve" />
      <point x="525" y="32" />
      <point x="525" y="18" />
      <point x="497" y="-13" />
    </contour>
    <contour>
      <point x="424" y="695" />
      <point x="424" y="632" />
      <point x="404" y="632" type="qcurve" />
      <point x="171" y="632" type="line" />
      <point x="153" y="632" />
      <point x="153" y="695" />
      <point x="172" y="695" type="qcurve" />
      <point x="406" y="695" type="line" />
    </contour>
  </outline>
</glyph>
<glyph name="Aogonek" format="2">
  <unicode hex="0104" />
  <advance width="706" />
  <outline>
    <contour>
      <point x="494" y="303" type="line" />
      <point x="407" y="505" />
      <point x="365" y="615" type="qcurve" />
      <point x="280" y="426" />
      <point x="215" y="292" type="qcurve" />
    </contour>
    <contour>
      <point x="623" y="2" type="qcurve" />
      <point x="622" y="2" />
      <point x="622" y="3" type="qcurve" />
      <point x="617" y="15" type="line" />
      <point x="600" y="65" />
      <point x="580" y="112" type="qcurve" />
      <point x="519" y="245" type="line" />
      <point x="188" y="230" type="line" />
      <point x="184" y="230" type="line" />
      <point x="168" y="195" />
      <point x="152" y="163" type="qcurve" />
      <point x="121" y="101" type="line" />
      <point x="102" y="62" />
      <point x="83" y="10" type="qcurve" />
      <point x="77" y="-7" />
      <point x="-1" y="-7" />
      <point x="-1" y="12" type="qcurve" />
      <point x="-1" y="18" />
      <point x="7" y="30" />
      <point x="15" y="45" />
      <point x="35" y="82" />
      <point x="75" y="157" />
      <point x="109" y="223" type="qcurve" />
      <point x="101" y="223" type="line" />
      <point x="89" y="223" />
      <point x="69" y="261" />
      <point x="69" y="292" />
      <point x="80" y="292" type="qcurve" />
      <point x="82" y="292" type="line" />
      <point x="100" y="290" />
      <point x="122" y="290" type="qcurve" />
      <point x="141" y="290" type="line" />
      <point x="279" y="566" />
      <point x="319" y="669" type="qcurve" />
      <point x="323" y="678" />
      <point x="328" y="716" />
      <point x="338" y="728" />
      <point x="370" y="728" />
      <point x="409" y="710" />
      <point x="412" y="696" type="qcurve" />
      <point x="409" y="676" type="line" />
      <point x="409" y="663" />
      <point x="463" y="532" type="qcurve" />
      <point x="634" y="126" />
      <point x="696" y="37" type="qcurve" />
      <point x="707" y="21" />
      <point x="708" y="16" type="qcurve" />
      <point x="708" y="6" />
      <point x="695" y="0" type="qcurve" />
      <point x="645" y="-48" />
      <point x="645" y="-106" type="qcurve" />
      <point x="645" y="-140" />
      <point x="729" y="-140" />
      <point x="763" y="-111" type="qcurve" />
      <point x="774" y="-100" />
      <point x="796" y="-99" />
      <point x="796" y="-123" />
      <point x="762" y="-164" />
      <point x="708" y="-197" />
      <point x="626" y="-197" />
      <point x="575" y="-148" />
      <point x="575" y="-75" />
      <point x="590" y="-45" type="qcurve" />
      <point x="604" y="-15" />
    </contour>
  </outline>
</glyph>
<glyph name="aogonek" format="2">
  <unicode hex="0105" />
  <advance width="588" />
  <outline>
    <contour>
      <point x="127" y="184" type="qcurve" />
      <point x="127" y="43" />
      <point x="225" y="43" type="qcurve" />
      <point x="270" y="43" />
      <point x="314" y="76" type="qcurve" />
      <point x="420" y="154" />
      <point x="421" y="338" type="qcurve" />
      <point x="421" y="364" />
      <point x="422" y="389" type="qcurve" />
      <point x="413" y="380" />
      <point x="400" y="380" />
      <point x="397" y="384" type="qcurve" />
      <point x="365" y="438" />
      <point x="244" y="438" />
      <point x="127" y="290" />
    </contour>
    <contour>
      <point x="523" y="18" type="qcurve" />
      <point x="520" y="12" />
      <point x="512" y="3" type="qcurve" />
      <point x="506" y="-4" />
      <point x="500" y="-8" type="qcurve" />
      <point x="471" y="-46" />
      <point x="471" y="-90" type="qcurve" />
      <point x="471" y="-124" />
      <point x="555" y="-124" />
      <point x="589" y="-94" type="qcurve" />
      <point x="600" y="-83" />
      <point x="622" y="-83" />
      <point x="622" y="-106" />
      <point x="588" y="-147" />
      <point x="534" y="-180" />
      <point x="452" y="-180" />
      <point x="401" y="-132" />
      <point x="401" y="-58" />
      <point x="416" y="-29" type="qcurve" />
      <point x="429" y="0" />
      <point x="447" y="17" type="qcurve" />
      <point x="432" y="51" />
      <point x="425" y="121" type="qcurve" />
      <point x="387" y="49" />
      <point x="280" y="-18" />
      <point x="222" y="-18" type="qcurve" />
      <point x="147" y="-18" />
      <point x="57" y="83" />
      <point x="57" y="179" type="qcurve" />
      <point x="57" y="307" />
      <point x="137" y="403" type="qcurve" />
      <point x="173" y="447" />
      <point x="263" y="498" />
      <point x="310" y="498" type="qcurve" />
      <point x="390" y="498" />
      <point x="423" y="430" type="qcurve" />
      <point x="423" y="486" type="line" />
      <point x="423" y="496" />
      <point x="462" y="497" />
      <point x="501" y="482" />
      <point x="501" y="470" type="qcurve" />
      <point x="501" y="468" type="line" />
      <point x="488" y="377" />
      <point x="487" y="200" type="qcurve" />
      <point x="487" y="92" />
      <point x="523" y="36" type="qcurve" />
      <point x="525" y="32" />
      <point x="525" y="26" type="qcurve" />
      <point x="525" y="22" />
    </contour>
  </outline>
</glyph>
<glyph name="Cacute" format="2">
  <unicode hex="0106" />
  <advance width="719" />
  <outline>
    <contour>
      <point x="676" y="154" type="qcurve" />
      <point x="641" y="94" />
      <point x="569" y="45" type="qcurve" />
      <point x="478" y="-18" />
      <point x="366" y="-18" type="qcurve" />
      <point x="277" y="-18" />
      <point x="134" y="47" />
      <point x="52" y="187" />
      <point x="52" y="390" />
      <point x="108" y="547" />
      <point x="207" y="665" />
      <point x="340" y="730" />
      <point x="418" y="730" type="qcurve" />
      <point x="571" y="730" />
      <point x="643" y="643" type="qcurve" />
      <point x="646" y="639" />
      <point x="646" y="617" />
      <point x="620" y="583" />
      <point x="596" y="583" />
      <point x="590" y="592" type="qcurve" />
      <point x="543" y="665" />
      <point x="296" y="665" />
      <point x="213" y="563" type="qcurve" />
      <point x="126" y="460" />
      <point x="126" y="131" />
      <point x="244" y="74" type="qcurve" />
      <point x="299" y="46" />
      <point x="419" y="46" />
      <point x="523" y="82" />
      <point x="620" y="147" />
      <point x="651" y="189" type="qcurve" />
      <point x="663" y="204" />
      <point x="690" y="205" />
      <point x="690" y="179" />
    </contour>
    <contour>
      <point x="500" y="836" type="qcurve" />
      <point x="450" y="818" />
      <point x="350" y="782" />
      <point x="309" y="759" />
      <point x="297" y="759" />
      <point x="287" y="769" />
      <point x="287" y="776" type="qcurve" />
      <point x="287" y="798" />
      <point x="440" y="900" type="qcurve" />
      <point x="442" y="901" />
      <point x="457" y="901" />
      <point x="471" y="891" type="qcurve" />
      <point x="507" y="866" />
      <point x="507" y="846" type="qcurve" />
      <point x="507" y="839" />
    </contour>
  </outline>
</glyph>
<glyph name="ccircumflex" format="2">
  <unicode hex="0109" />
  <advance width="542" />
  <outline>
    <contour>
      <point x="479" y="159" />
      <point x="498" y="159" />
      <point x="498" y="140" />
      <point x="469" y="88" />
      <point x="439" y="57" type="qcurve" />
      <point x="365" y="-19" />
      <point x="256" y="-18" type="qcurve" />
      <point x="203" y="-18" />
      <point x="112" y="32" />
      <point x="57" y="129" />
      <point x="57" y="260" />
      <point x="103" y="369" />
      <point x="179" y="451" />
      <point x="273" y="498" />
      <point x="362" y="498" />
      <point x="420" y="474" />
      <point x="454" y="441" />
      <point x="469" y="414" />
      <point x="469" y="411" type="qcurve" />
      <point x="469" y="395" />
      <point x="438" y="364" />
      <point x="420" y="364" />
      <point x="417" y="369" type="qcurve" />
      <point x="410" y="383" />
      <point x="395" y="410" />
      <point x="384" y="417" type="qcurve" />
      <point x="354" y="437" />
      <point x="323" y="437" type="qcurve" />
      <point x="257" y="437" />
      <point x="193" y="369" type="qcurve" />
      <point x="127" y="295" />
      <point x="127" y="204" type="qcurve" />
      <point x="127" y="151" />
      <point x="147" y="115" type="qcurve" />
      <point x="187" y="41" />
      <point x="263" y="41" type="qcurve" />
      <point x="361" y="41" />
      <point x="464" y="143" type="qcurve" />
    </contour>
    <contour>
      <point x="312" y="673" type="qcurve" />
      <point x="209" y="607" />
      <point x="175" y="579" />
      <point x="167" y="579" type="qcurve" />
      <point x="149" y="579" />
      <point x="148" y="610" />
      <point x="231" y="694" type="qcurve" />
      <point x="251" y="716" />
      <point x="275" y="738" />
      <point x="297" y="742" />
      <point x="342" y="742" />
      <point x="367" y="718" />
      <point x="387" y="698" type="qcurve" />
      <point x="475" y="612" />
      <point x="475" y="579" />
      <point x="457" y="579" type="qcurve" />
      <point x="449" y="579" />
      <point x="412" y="611" />
    </contour>
  </outline>
</glyph>
<glyph name="dcaron" format="2">
  <unicode hex="010F" />
  <advance width="588" />
  <outline>
    <contour>
      <point x="427" y="390" type="line" />
      <point x="423" y="386" />
      <point x="412" y="386" />
      <point x="408" y="391" type="qcurve" />
      <point x="374" y="438" />
      <point x="307" y="438" type="qcurve" />
      <point x="275" y="438" />
      <point x="208" y="396" />
      <point x="182" y="360" type="qcurve" />
      <point x="127" y="282" />
      <point x="127" y="119" />
      <point x="181" y="43" />
      <point x="219" y="43" type="qcurve" />
      <point x="293" y="43" />
      <point x="427" y="188" />
      <point x="427" y="283" type="qcurve" />
    </contour>
    <contour>
      <point x="485" y="697" type="qcurve" />
      <point x="483" y="606" type="line" />
      <point x="483" y="189" type="line" />
      <point x="483" y="145" />
      <point x="502" y="60" />
      <point x="518" y="40" type="qcurve" />
      <point x="520" y="36" />
      <point x="520" y="20" />
      <point x="492" y="-12" />
      <point x="477" y="-12" type="qcurve" />
      <point x="452" y="-12" />
      <point x="419" y="93" />
      <point x="419" y="121" type="qcurve" />
      <point x="375" y="47" />
      <point x="274" y="-18" />
      <point x="139" y="-18" />
      <point x="46" y="90" />
      <point x="46" y="190" type="qcurve" />
      <point x="46" y="311" />
      <point x="202" y="498" />
      <point x="301" y="498" type="qcurve" />
      <point x="340" y="498" />
      <point x="399" y="468" />
      <point x="416" y="444" type="qcurve" />
      <point x="416" y="607" type="line" />
      <point x="412" y="716" type="line" />
      <point x="412" y="726" />
      <point x="449" y="726" />
      <point x="485" y="710" />
    </contour>
    <contour>
      <point x="570" y="506" type="line" />
      <point x="570" y="493" />
      <point x="519" y="493" />
      <point x="517" y="506" type="qcurve" />
      <point x="512" y="686" type="line" />
      <point x="512" y="695" />
      <point x="532" y="705" />
      <point x="544" y="705" type="qcurve" />
      <point x="576" y="705" />
      <point x="575" y="687" type="qcurve" />
      <point x="575" y="686" type="line" />
    </contour>
  </outline>
</glyph>
<glyph name="dcroat" format="2">
  <unicode hex="0111" />
  <advance width="596" />
  <outline>
    <contour>
      <point x="427" y="390" type="line" />
      <point x="423" y="386" />
      <point x="412" y="386" />
      <point x="408" y="391" type="qcurve" />
      <point x="374" y="438" />
      <point x="307" y="438" type="qcurve" />
      <point x="275" y="438" />
      <point x="208" y="396" />
      <point x="182" y="360" type="qcurve" />
      <point x="127" y="282" />
      <point x="127" y="119" />
      <point x="181" y="43" />
      <point x="219" y="43" type="qcurve" />
      <point x="293" y="43" />
      <point x="427" y="188" />
      <point x="427" y="283" type="qcurve" />
    </contour>
    <contour>
      <point x="421" y="603" type="line" />
      <point x="421" y="607" type="line" />
      <point x="417" y="716" type="line" />
      <point x="417" y="726" />
      <point x="454" y="726" />
      <point x="490" y="711" />
      <point x="490" y="697" type="qcurve" />
      <point x="488" y="606" type="line" />
      <point x="488" y="605" type="line" />
      <point x="522" y="607" />
      <point x="559" y="610" type="qcurve" />
      <point x="560" y="610" type="line" />
      <point x="572" y="610" />
      <point x="592" y="581" />
      <point x="592" y="553" />
      <point x="581" y="553" type="qcurve" />
      <point x="542" y="553" type="line" />
      <point x="514" y="553" />
      <point x="494" y="552" type="qcurve" />
      <point x="488" y="552" type="line" />
      <point x="488" y="189" type="line" />
      <point x="488" y="145" />
      <point x="507" y="60" />
      <point x="523" y="40" type="qcurve" />
      <point x="525" y="36" />
      <point x="525" y="20" />
      <point x="497" y="-12" />
      <point x="482" y="-12" type="qcurve" />
      <point x="457" y="-12" />
      <point x="424" y="93" />
      <point x="424" y="121" type="qcurve" />
      <point x="380" y="47" />
      <point x="280" y="-18" />
      <point x="144" y="-18" />
      <point x="51" y="90" />
      <point x="51" y="190" type="qcurve" />
      <point x="51" y="311" />
      <point x="207" y="498" />
      <point x="306" y="498" type="qcurve" />
      <point x="345" y="498" />
      <point x="404" y="468" />
      <point x="421" y="444" type="qcurve" />
      <point x="421" y="550" type="line" />
      <point x="387" y="548" type="line" />
      <point x="382" y="548" type="line" />
      <point x="381" y="548" />
      <point x="321" y="544" type="qcurve" />
      <point x="319" y="544" type="line" />
      <point x="307" y="544" />
      <point x="289" y="573" />
      <point x="289" y="601" />
      <point x="300" y="601" type="qcurve" />
      <point x="387" y="601" type="line" />
    </contour>
  </outline>
</glyph>
<glyph name="Emacron" format="2">
  <unicode hex="0112" />
  <advance width="653" />
  <outline>
    <contour>
      <point x="490" y="66" type="line" />
      <point x="529" y="66" />
      <point x="575" y="69" type="qcurve" />
      <point x="577" y="69" type="line" />
      <point x="590" y="69" />
      <point x="609" y="31" />
      <point x="609" y="-2" />
      <point x="598" y="-2" type="qcurve" />
      <point x="597" y="-2" type="line" />
      <point x="572" y="1" />
      <point x="508" y="1" type="qcurve" />
      <point x="492" y="1" type="line" />
      <point x="207" y="-3" type="line" />
      <point x="191" y="-3" />
      <point x="167" y="-10" />
      <point x="137" y="-10" />
      <point x="109" y="26" />
      <point x="109" y="38" type="qcurve" />
      <point x="116" y="86" type="line" />
      <point x="116" y="352" type="line" />
      <point x="105" y="358" />
      <point x="88" y="391" />
      <point x="88" y="414" />
      <point x="96" y="414" type="qcurve" />
      <point x="98" y="414" type="line" />
      <point x="106" y="412" />
      <point x="116" y="412" type="qcurve" />
      <point x="116" y="649" type="line" />
      <point x="112" y="701" type="line" />
      <point x="112" y="715" />
      <point x="140" y="716" />
      <point x="179" y="703" />
      <point x="180" y="702" type="qcurve" />
      <point x="458" y="721" type="line" />
      <point x="482" y="723" />
      <point x="534" y="729" />
      <point x="557" y="729" />
      <point x="578" y="693" />
      <point x="578" y="662" />
      <point x="564" y="662" type="qcurve" />
      <point x="500" y="662" type="line" />
      <point x="473" y="662" />
      <point x="459" y="660" type="qcurve" />
      <point x="185" y="642" type="line" />
      <point x="185" y="413" type="line" />
      <point x="401" y="426" type="line" />
      <point x="425" y="428" />
      <point x="477" y="434" />
      <point x="501" y="434" />
      <point x="521" y="398" />
      <point x="521" y="366" />
      <point x="508" y="366" type="qcurve" />
      <point x="444" y="366" type="line" />
      <point x="416" y="366" />
      <point x="402" y="365" type="qcurve" />
      <point x="185" y="352" type="line" />
      <point x="185" y="60" type="line" />
    </contour>
    <contour>
      <point x="463" y="866" />
      <point x="463" y="803" />
      <point x="443" y="803" type="qcurve" />
      <point x="210" y="803" type="line" />
      <point x="192" y="803" />
      <point x="191" y="866" />
      <point x="211" y="866" type="qcurve" />
      <point x="444" y="866" type="line" />
    </contour>
  </outline>
</glyph>
<glyph name="Eogonek" format="2">
  <unicode hex="0118" />
  <advance width="653" />
  <outline>
    <contour>
      <point x="523" y="1" type="qcurve" />
      <point x="484" y="1" type="line" />
      <point x="200" y="-3" type="line" />
      <point x="184" y="-3" />
      <point x="160" y="-10" />
      <point x="130" y="-10" />
      <point x="101" y="26" />
      <point x="101" y="38" type="qcurve" />
      <point x="109" y="86" type="line" />
      <point x="109" y="352" type="line" />
      <point x="98" y="358" />
      <point x="81" y="391" />
      <point x="81" y="414" />
      <point x="89" y="414" type="qcurve" />
      <point x="91" y="414" type="line" />
      <point x="99" y="412" />
      <point x="109" y="412" type="qcurve" />
      <point x="109" y="649" type="line" />
      <point x="104" y="701" type="line" />
      <point x="104" y="715" />
      <point x="133" y="716" />
      <point x="172" y="703" />
      <point x="173" y="702" type="qcurve" />
      <point x="451" y="721" type="line" />
      <point x="475" y="723" />
      <point x="526" y="729" />
      <point x="550" y="729" />
      <point x="570" y="693" />
      <point x="570" y="662" />
      <point x="557" y="662" type="qcurve" />
      <point x="494" y="662" type="line" />
      <point x="466" y="662" />
      <point x="452" y="660" type="qcurve" />
      <point x="178" y="642" type="line" />
      <point x="178" y="413" type="line" />
      <point x="394" y="426" type="line" />
      <point x="418" y="428" />
      <point x="470" y="434" />
      <point x="494" y="434" />
      <point x="514" y="398" />
      <point x="514" y="366" />
      <point x="501" y="366" type="qcurve" />
      <point x="436" y="366" type="line" />
      <point x="409" y="366" />
      <point x="395" y="365" type="qcurve" />
      <point x="178" y="352" type="line" />
      <point x="178" y="60" type="line" />
      <point x="483" y="66" type="line" />
      <point x="522" y="66" />
      <point x="568" y="69" type="qcurve" />
      <point x="569" y="69" type="line" />
      <point x="582" y="69" />
      <point x="602" y="31" />
      <point x="602" y="14" type="qcurve" />
      <point x="602" y="2" />
      <point x="596" y="-1" type="qcurve" />
      <point x="546" y="-49" />
      <point x="546" y="-108" type="qcurve" />
      <point x="546" y="-142" />
      <point x="630" y="-141" />
      <point x="664" y="-112" type="qcurve" />
      <point x="675" y="-101" />
      <point x="696" y="-100" />
      <point x="696" y="-124" />
      <point x="663" y="-165" />
      <point x="608" y="-198" />
      <point x="526" y="-198" />
      <point x="476" y="-150" />
      <point x="476" y="-76" />
      <point x="504" y="-16" />
    </contour>
  </outline>
</glyph>
<glyph name="Ecaron" format="2">
  <unicode hex="011A" />
  <advance width="653" />
  <outline>
    <contour>
      <point x="490" y="66" type="line" />
      <point x="529" y="66" />
      <point x="575" y="69" type="qcurve" />
      <point x="577" y="69" type="line" />
      <point x="590" y="69" />
      <point x="609" y="31" />
      <point x="609" y="-2" />
      <point x="598" y="-2" type="qcurve" />
      <point x="597" y="-2" type="line" />
      <point x="572" y="1" />
      <point x="508" y="1" type="qcurve" />
      <point x="492" y="1" type="line" />
      <point x="207" y="-3" type="line" />
      <point x="191" y="-3" />
      <point x="167" y="-10" />
      <point x="137" y="-10" />
      <point x="109" y="26" />
      <point x="109" y="38" type="qcurve" />
      <point x="116" y="86" type="line" />
      <point x="116" y="352" type="line" />
      <point x="105" y="358" />
      <point x="88" y="391" />
      <point x="88" y="414" />
      <point x="96" y="414" type="qcurve" />
      <point x="98" y="414" type="line" />
      <point x="106" y="412" />
      <point x="116" y="412" type="qcurve" />
      <point x="116" y="649" type="line" />
      <point x="112" y="701" type="line" />
      <point x="112" y="715" />
      <point x="140" y="716" />
      <point x="179" y="703" />
      <point x="180" y="702" type="qcurve" />
      <point x="458" y="721" type="line" />
      <point x="482" y="723" />
      <point x="534" y="729" />
      <point x="557" y="729" />
      <point x="578" y="693" />
      <point x="578" y="662" />
      <point x="564" y="662" type="qcurve" />
      <point x="500" y="662" type="line" />
      <point x="473" y="662" />
      <point x="459" y="660" type="qcurve" />
      <point x="185" y="642" type="line" />
      <point x="185" y="413" type="line" />
      <point x="401" y="426" type="line" />
      <point x="425" y="428" />
      <point x="477" y="434" />
      <point x="501" y="434" />
      <point x="521" y="398" />
      <point x="521" y="366" />
      <point x="508" y="366" type="qcurve" />
      <point x="444" y="366" type="line" />
      <point x="416" y="366" />
      <point x="402" y="365" type="qcurve" />
      <point x="185" y="352" type="line" />
      <point x="185" y="60" type="line" />
    </contour>
    <contour>
      <point x="327" y="823" type="qcurve" />
      <point x="363" y="847" />
      <point x="432" y="891" />
      <point x="463" y="918" />
      <point x="471" y="918" type="qcurve" />
      <point x="489" y="918" />
      <point x="489" y="884" />
      <point x="401" y="798" type="qcurve" />
      <point x="381" y="779" />
      <point x="356" y="754" />
      <point x="296" y="754" />
      <point x="285" y="763" type="qcurve" />
      <point x="213" y="831" />
      <point x="163" y="896" />
      <point x="163" y="901" type="qcurve" />
      <point x="163" y="917" />
      <point x="181" y="918" type="qcurve" />
      <point x="189" y="918" />
      <point x="220" y="891" />
      <point x="291" y="847" />
    </contour>
  </outline>
</glyph>
<glyph name="Gcircumflex" format="2">
  <unicode hex="011C" />
  <advance width="770" />
  <outline>
    <contour>
      <point x="698" y="7" type="qcurve" />
      <point x="698" y="-6" />
      <point x="657" y="-6" />
      <point x="623" y="7" />
      <point x="623" y="16" type="qcurve" />
      <point x="623" y="17" type="line" />
      <point x="628" y="71" />
      <point x="628" y="129" type="qcurve" />
      <point x="584" y="36" />
      <point x="474" y="-1" type="qcurve" />
      <point x="426" y="-17" />
      <point x="380" y="-17" type="qcurve" />
      <point x="178" y="-17" />
      <point x="99" y="116" type="qcurve" />
      <point x="57" y="187" />
      <point x="57" y="287" type="qcurve" />
      <point x="57" y="476" />
      <point x="160" y="600" type="qcurve" />
      <point x="264" y="730" />
      <point x="579" y="730" />
      <point x="648" y="643" type="qcurve" />
      <point x="652" y="639" />
      <point x="652" y="615" />
      <point x="626" y="582" />
      <point x="604" y="582" />
      <point x="600" y="588" type="qcurve" />
      <point x="586" y="611" />
      <point x="557" y="631" type="qcurve" />
      <point x="506" y="667" />
      <point x="356" y="667" />
      <point x="252" y="610" />
      <point x="213" y="560" type="qcurve" />
      <point x="129" y="454" />
      <point x="129" y="302" type="qcurve" />
      <point x="129" y="121" />
      <point x="246" y="72" type="qcurve" />
      <point x="302" y="47" />
      <point x="446" y="47" />
      <point x="561" y="115" />
      <point x="632" y="236" />
      <point x="632" y="315" type="qcurve" />
      <point x="632" y="318" />
      <point x="628" y="318" type="qcurve" />
      <point x="511" y="310" type="line" />
      <point x="489" y="309" />
      <point x="434" y="302" type="qcurve" />
      <point x="432" y="302" type="line" />
      <point x="418" y="302" />
      <point x="393" y="340" />
      <point x="393" y="370" />
      <point x="406" y="370" type="qcurve" />
      <point x="420" y="370" type="line" />
      <point x="465" y="370" />
      <point x="492" y="372" type="qcurve" />
      <point x="618" y="379" type="line" />
      <point x="626" y="380" />
      <point x="645" y="383" />
      <point x="662" y="383" />
      <point x="674" y="374" type="qcurve" />
      <point x="706" y="350" />
      <point x="706" y="334" type="qcurve" />
      <point x="706" y="327" />
      <point x="696" y="316" />
      <point x="696" y="305" type="qcurve" />
      <point x="696" y="99" type="line" />
      <point x="696" y="91" />
      <point x="697" y="54" />
      <point x="698" y="17" />
    </contour>
    <contour>
      <point x="394" y="844" type="qcurve" />
      <point x="291" y="778" />
      <point x="257" y="750" />
      <point x="249" y="750" type="qcurve" />
      <point x="231" y="750" />
      <point x="230" y="781" />
      <point x="313" y="865" type="qcurve" />
      <point x="333" y="887" />
      <point x="357" y="909" />
      <point x="379" y="913" />
      <point x="424" y="913" />
      <point x="449" y="889" />
      <point x="469" y="869" type="qcurve" />
      <point x="557" y="783" />
      <point x="557" y="750" />
      <point x="539" y="750" type="qcurve" />
      <point x="531" y="750" />
      <point x="494" y="782" />
    </contour>
  </outline>
</glyph>
<glyph name="Hcircumflex" format="2">
  <unicode hex="0124" />
  <advance width="716" />
  <outline>
    <contour>
      <point x="553" y="18" type="qcurve" />
      <point x="555" y="110" type="line" />
      <point x="555" y="371" type="line" />
      <point x="549" y="370" type="line" />
      <point x="467" y="373" type="line" />
      <point x="186" y="356" type="line" />
      <point x="180" y="356" type="line" />
      <point x="180" y="108" type="line" />
      <point x="183" y="-1" type="line" />
      <point x="183" y="-11" />
      <point x="145" y="-11" />
      <point x="106" y="4" />
      <point x="106" y="17" type="qcurve" />
      <point x="109" y="109" type="line" />
      <point x="109" y="348" type="line" />
      <point x="106" y="347" />
      <point x="101" y="347" type="qcurve" />
      <point x="100" y="347" type="line" />
      <point x="87" y="347" />
      <point x="68" y="385" />
      <point x="68" y="418" />
      <point x="79" y="418" type="qcurve" />
      <point x="80" y="418" type="line" />
      <point x="109" y="417" type="line" />
      <point x="109" y="603" type="line" />
      <point x="105" y="712" type="line" />
      <point x="105" y="722" />
      <point x="144" y="722" />
      <point x="182" y="707" />
      <point x="182" y="693" type="qcurve" />
      <point x="180" y="602" type="line" />
      <point x="180" y="417" type="line" />
      <point x="185" y="417" type="line" />
      <point x="442" y="432" type="line" />
      <point x="466" y="434" />
      <point x="515" y="438" />
      <point x="527" y="440" type="qcurve" />
      <point x="530" y="440" type="line" />
      <point x="545" y="440" />
      <point x="555" y="416" type="qcurve" />
      <point x="555" y="603" type="line" />
      <point x="552" y="712" type="line" />
      <point x="552" y="722" />
      <point x="591" y="722" />
      <point x="629" y="707" />
      <point x="629" y="693" type="qcurve" />
      <point x="627" y="602" type="line" />
      <point x="627" y="109" type="line" />
      <point x="630" y="0" type="line" />
      <point x="630" y="-10" />
      <point x="592" y="-10" />
      <point x="553" y="5" />
    </contour>
    <contour>
      <point x="369" y="844" type="qcurve" />
      <point x="266" y="778" />
      <point x="231" y="750" />
      <point x="223" y="750" type="qcurve" />
      <point x="205" y="750" />
      <point x="205" y="781" />
      <point x="288" y="865" type="qcurve" />
      <point x="308" y="887" />
      <point x="332" y="909" />
      <point x="353" y="913" />
      <point x="398" y="913" />
      <point x="423" y="889" />
      <point x="443" y="869" type="qcurve" />
      <point x="531" y="783" />
      <point x="531" y="750" />
      <point x="513" y="750" type="qcurve" />
      <point x="505" y="750" />
      <point x="469" y="782" />
    </contour>
  </outline>
</glyph>
<glyph name="hcircumflex" format="2">
  <unicode hex="0125" />
  <advance width="602" />
  <outline>
    <contour>
      <point x="527" y="108" type="line" />
      <point x="530" y="-1" type="line" />
      <point x="530" y="-11" />
      <point x="495" y="-11" />
      <point x="458" y="4" />
      <point x="458" y="16" type="qcurve" />
      <point x="458" y="17" type="line" />
      <point x="459" y="25" />
      <point x="459" y="45" type="qcurve" />
      <point x="460" y="118" type="line" />
      <point x="460" y="300" type="line" />
      <point x="460" y="360" />
      <point x="427" y="433" />
      <point x="376" y="433" type="qcurve" />
      <point x="295" y="433" />
      <point x="185" y="315" />
      <point x="183" y="166" type="qcurve" />
      <point x="182" y="132" />
      <point x="181" y="108" type="qcurve" />
      <point x="181" y="91" type="line" />
      <point x="181" y="60" />
      <point x="184" y="-1" type="qcurve" />
      <point x="184" y="-11" />
      <point x="148" y="-11" />
      <point x="112" y="4" />
      <point x="112" y="17" type="qcurve" />
      <point x="114" y="118" type="line" />
      <point x="114" y="604" type="line" />
      <point x="111" y="714" type="line" />
      <point x="111" y="724" />
      <point x="146" y="724" />
      <point x="183" y="709" />
      <point x="183" y="695" type="qcurve" />
      <point x="181" y="594" type="line" />
      <point x="181" y="385" type="line" />
      <point x="214" y="439" />
      <point x="319" y="497" />
      <point x="372" y="497" type="qcurve" />
      <point x="466" y="497" />
      <point x="501" y="432" type="qcurve" />
      <point x="528" y="385" />
      <point x="527" y="304" type="qcurve" />
    </contour>
    <contour>
      <point x="155" y="839" type="qcurve" />
      <point x="58" y="777" />
      <point x="26" y="750" />
      <point x="17" y="750" type="qcurve" />
      <point x="0" y="750" />
      <point x="0" y="779" />
      <point x="78" y="859" type="qcurve" />
      <point x="97" y="878" />
      <point x="120" y="900" />
      <point x="140" y="904" />
      <point x="182" y="904" />
      <point x="206" y="881" />
      <point x="225" y="862" type="qcurve" />
      <point x="308" y="781" />
      <point x="308" y="750" />
      <point x="291" y="750" type="qcurve" />
      <point x="283" y="750" />
      <point x="249" y="780" />
    </contour>
  </outline>
</glyph>
<glyph name="ibreve" format="2">
  <unicode hex="012D" />
  <advance width="269" />
  <outline>
    <contour>
      <point x="97" y="17" type="qcurve" />
      <point x="99" y="108" type="line" />
      <point x="99" y="377" type="line" />
      <point x="96" y="486" type="line" />
      <point x="96" y="495" />
      <point x="133" y="496" />
      <point x="172" y="480" />
      <point x="172" y="468" type="qcurve" />
      <point x="170" y="377" type="line" />
      <point x="170" y="108" type="line" />
      <point x="173" y="-1" type="line" />
      <point x="173" y="-10" />
      <point x="137" y="-10" />
      <point x="97" y="5" />
    </contour>
    <contour>
      <point x="279" y="680" />
      <point x="303" y="660" />
      <point x="303" y="652" type="qcurve" />
      <point x="303" y="630" />
      <point x="213" y="554" />
      <point x="58" y="554" />
      <point x="7" y="597" type="qcurve" />
      <point x="-36" y="632" />
      <point x="-36" y="652" type="qcurve" />
      <point x="-36" y="660" />
      <point x="-10" y="680" />
      <point x="15" y="680" />
      <point x="22" y="670" type="qcurve" />
      <point x="54" y="615" />
      <point x="134" y="614" type="qcurve" />
      <point x="173" y="614" />
      <point x="228" y="638" />
      <point x="247" y="670" type="qcurve" />
      <point x="253" y="680" />
    </contour>
  </outline>
</glyph>
<glyph name="Idotaccent" format="2">
  <unicode hex="0130" />
  <advance width="311" />
  <outline>
    <contour>
      <point x="116" y="18" type="qcurve" />
      <point x="118" y="110" type="line" />
      <point x="118" y="603" type="line" />
      <point x="115" y="712" type="line" />
      <point x="115" y="722" />
      <point x="155" y="722" />
      <point x="196" y="707" />
      <point x="196" y="693" type="qcurve" />
      <point x="194" y="602" type="line" />
      <point x="194" y="109" type="line" />
      <point x="197" y="0" type="line" />
      <point x="197" y="-10" />
      <point x="157" y="-10" />
      <point x="116" y="5" />
    </contour>
    <contour>
      <point x="205" y="837" />
      <point x="179" y="810" />
      <point x="136" y="810" />
      <point x="101" y="852" />
      <point x="101" y="895" />
      <point x="126" y="922" />
      <point x="169" y="922" />
      <point x="205" y="882" />
    </contour>
  </outline>
</glyph>
<glyph name="IJ" format="2">
  <unicode hex="0132" />
  <advance width="503" />
  <outline>
    <contour>
      <point x="436" y="693" type="qcurve" />
      <point x="434" y="602" type="line" />
      <point x="434" y="181" type="line" />
      <point x="434" y="39" />
      <point x="342" y="0" type="qcurve" />
      <point x="301" y="-17" />
      <point x="202" y="-17" />
      <point x="126" y="19" />
      <point x="79" y="71" />
      <point x="57" y="117" />
      <point x="57" y="138" />
      <point x="76" y="162" />
      <point x="101" y="177" />
      <point x="122" y="177" />
      <point x="124" y="166" type="qcurve" />
      <point x="140" y="92" />
      <point x="189" y="66" type="qcurve" />
      <point x="220" y="51" />
      <point x="280" y="50" />
      <point x="305" y="61" type="qcurve" />
      <point x="361" y="87" />
      <point x="361" y="184" type="qcurve" />
      <point x="361" y="603" type="line" />
      <point x="358" y="712" type="line" />
      <point x="358" y="722" />
      <point x="397" y="722" />
      <point x="436" y="706" />
    </contour>
    <contour>
      <point x="118" y="273" type="qcurve" />
      <point x="120" y="358" type="line" />
      <point x="120" y="610" type="line" />
      <point x="117" y="714" type="line" />
      <point x="117" y="722" />
      <point x="154" y="722" />
      <point x="193" y="708" />
      <point x="193" y="696" type="qcurve" />
      <point x="190" y="610" type="line" />
      <point x="190" y="358" type="line" />
      <point x="194" y="256" type="line" />
      <point x="194" y="248" />
      <point x="158" y="248" />
      <point x="118" y="262" />
    </contour>
  </outline>
</glyph>
<glyph name="jcircumflex" format="2">
  <unicode hex="0135" />
  <advance width="308" />
  <outline>
    <contour>
      <point x="214" y="468" type="qcurve" />
      <point x="212" y="373" type="line" />
      <point x="212" y="-31" type="line" />
      <point x="212" y="-108" />
      <point x="172" y="-144" type="qcurve" />
      <point x="149" y="-166" />
      <point x="59" y="-166" />
      <point x="1" y="-134" />
      <point x="1" y="-100" />
      <point x="22" y="-68" />
      <point x="44" y="-68" />
      <point x="55" y="-81" type="qcurve" />
      <point x="71" y="-103" />
      <point x="106" y="-102" type="qcurve" />
      <point x="123" y="-102" />
      <point x="142" y="-63" />
      <point x="142" y="-32" type="qcurve" />
      <point x="142" y="373" type="line" />
      <point x="139" y="486" type="line" />
      <point x="139" y="496" />
      <point x="176" y="497" />
      <point x="214" y="481" />
    </contour>
    <contour>
      <point x="179" y="673" type="qcurve" />
      <point x="76" y="607" />
      <point x="42" y="579" />
      <point x="34" y="579" type="qcurve" />
      <point x="16" y="579" />
      <point x="15" y="610" />
      <point x="98" y="694" type="qcurve" />
      <point x="118" y="716" />
      <point x="142" y="738" />
      <point x="164" y="742" />
      <point x="209" y="742" />
      <point x="233" y="718" />
      <point x="254" y="698" type="qcurve" />
      <point x="342" y="612" />
      <point x="342" y="579" />
      <point x="324" y="579" type="qcurve" />
      <point x="316" y="579" />
      <point x="279" y="611" />
    </contour>
  </outline>
</glyph>
<glyph name="uni0136" format="2">
  <unicode hex="0136" />
  <advance width="645" />
  <outline>
    <contour>
      <point x="106" y="17" type="qcurve" />
      <point x="109" y="115" type="line" />
      <point x="109" y="603" type="line" />
      <point x="105" y="712" type="line" />
      <point x="105" y="722" />
      <point x="144" y="722" />
      <point x="182" y="707" />
      <point x="182" y="693" type="qcurve" />
      <point x="180" y="602" type="line" />
      <point x="180" y="422" type="line" />
      <point x="296" y="512" />
      <point x="490" y="697" />
      <point x="510" y="721" />
      <point x="541" y="721" />
      <point x="584" y="697" />
      <point x="584" y="686" type="qcurve" />
      <point x="584" y="681" />
      <point x="564" y="665" />
      <point x="523" y="632" />
      <point x="393" y="513" />
      <point x="262" y="408" type="qcurve" />
      <point x="263" y="408" />
      <point x="299" y="367" />
      <point x="330" y="333" type="qcurve" />
      <point x="521" y="122" />
      <point x="633" y="28" type="qcurve" />
      <point x="637" y="25" />
      <point x="637" y="20" type="qcurve" />
      <point x="637" y="10" />
      <point x="596" y="-9" />
      <point x="549" y="-9" />
      <point x="542" y="2" type="qcurve" />
      <point x="525" y="26" />
      <point x="501" y="50" type="qcurve" />
      <point x="315" y="245" />
      <point x="211" y="366" type="qcurve" />
      <point x="180" y="341" type="line" />
      <point x="180" y="114" type="line" />
      <point x="183" y="-1" type="line" />
      <point x="183" y="-11" />
      <point x="145" y="-11" />
      <point x="106" y="4" />
    </contour>
    <contour>
      <point x="261" y="-229" type="qcurve" />
      <point x="247" y="-229" />
      <point x="247" y="-215" type="qcurve" />
      <point x="247" y="-208" />
      <point x="253" y="-203" type="qcurve" />
      <point x="272" y="-190" />
      <point x="306" y="-148" />
      <point x="311" y="-130" type="qcurve" />
      <point x="309" y="-129" />
      <point x="290" y="-125" />
      <point x="286" y="-120" type="qcurve" />
      <point x="263" y="-98" />
      <point x="263" y="-52" />
      <point x="296" y="-28" />
      <point x="338" y="-28" />
      <point x="367" y="-65" />
      <point x="371" y="-98" type="qcurve" />
      <point x="371" y="-134" />
      <point x="311" y="-209" />
      <point x="269" y="-227" type="qcurve" />
      <point x="265" y="-229" />
    </contour>
  </outline>
</glyph>
<glyph name="kgreenlandic" format="2">
  <unicode hex="0138" />
  <advance width="455" />
  <outline>
    <contour>
      <point x="57" y="11" type="qcurve" />
      <point x="58" y="79" type="line" />
      <point x="58" y="415" type="line" />
      <point x="56" y="488" type="line" />
      <point x="56" y="501" />
      <point x="90" y="502" />
      <point x="122" y="489" />
      <point x="122" y="476" type="qcurve" />
      <point x="120" y="414" type="line" />
      <point x="120" y="302" type="line" />
      <point x="190" y="356" />
      <point x="323" y="483" />
      <point x="338" y="502" />
      <point x="364" y="502" />
      <point x="397" y="482" />
      <point x="397" y="471" type="qcurve" />
      <point x="397" y="465" />
      <point x="382" y="452" />
      <point x="354" y="429" />
      <point x="264" y="348" />
      <point x="187" y="286" type="qcurve" />
      <point x="174" y="286" />
      <point x="200" y="256" />
      <point x="221" y="232" type="qcurve" />
      <point x="352" y="88" />
      <point x="429" y="24" type="qcurve" />
      <point x="434" y="20" />
      <point x="434" y="13" type="qcurve" />
      <point x="434" y="3" />
      <point x="401" y="-13" />
      <point x="365" y="-13" />
      <point x="357" y="-2" type="qcurve" />
      <point x="346" y="13" />
      <point x="330" y="30" type="qcurve" />
      <point x="202" y="164" />
      <point x="134" y="243" type="qcurve" />
      <point x="120" y="231" type="line" />
      <point x="120" y="78" type="line" />
      <point x="122" y="-1" type="line" />
      <point x="122" y="-14" />
      <point x="89" y="-14" />
      <point x="57" y="-2" />
    </contour>
  </outline>
</glyph>
<glyph name="lcaron" format="2">
  <unicode hex="013E" />
  <advance width="309" />
  <outline>
    <contour>
      <point x="175" y="45" type="qcurve" />
      <point x="179" y="41" />
      <point x="187" y="41" type="qcurve" />
      <point x="189" y="41" type="line" />
      <point x="211" y="42" />
      <point x="238" y="70" type="qcurve" />
      <point x="250" y="81" />
      <point x="269" y="81" />
      <point x="269" y="48" />
      <point x="242" y="13" type="qcurve" />
      <point x="211" y="-22" />
      <point x="180" y="-22" type="qcurve" />
      <point x="170" y="-22" type="line" />
      <point x="135" y="-18" />
      <point x="118" y="5" type="qcurve" />
      <point x="101" y="30" />
      <point x="99" y="77" type="qcurve" />
      <point x="99" y="604" type="line" />
      <point x="96" y="714" type="line" />
      <point x="96" y="724" />
      <point x="134" y="724" />
      <point x="172" y="709" />
      <point x="172" y="695" type="qcurve" />
      <point x="170" y="604" type="line" />
      <point x="170" y="80" type="line" />
      <point x="170" y="52" />
    </contour>
    <contour>
      <point x="304" y="506" type="line" />
      <point x="304" y="493" />
      <point x="253" y="493" />
      <point x="251" y="506" type="qcurve" />
      <point x="246" y="686" type="line" />
      <point x="246" y="695" />
      <point x="266" y="705" />
      <point x="278" y="705" type="qcurve" />
      <point x="310" y="705" />
      <point x="309" y="687" type="qcurve" />
      <point x="309" y="686" type="line" />
    </contour>
  </outline>
</glyph>
<glyph name="lslash" format="2">
  <unicode hex="0142" />
  <advance width="311" />
  <outline>
    <contour>
      <point x="116" y="17" type="qcurve" />
      <point x="118" y="108" type="line" />
      <point x="118" y="293" type="line" />
      <point x="100" y="279" />
      <point x="59" y="246" type="qcurve" />
      <point x="55" y="243" />
      <point x="36" y="243" />
      <point x="7" y="269" />
      <point x="7" y="291" />
      <point x="18" y="299" type="qcurve" />
      <point x="64" y="330" />
      <point x="84" y="345" type="qcurve" />
      <point x="118" y="371" type="line" />
      <point x="118" y="604" type="line" />
      <point x="115" y="714" type="line" />
      <point x="115" y="724" />
      <point x="153" y="724" />
      <point x="190" y="709" />
      <point x="190" y="695" type="qcurve" />
      <point x="188" y="604" type="line" />
      <point x="188" y="425" type="line" />
      <point x="213" y="443" />
      <point x="253" y="478" />
      <point x="274" y="478" />
      <point x="302" y="452" />
      <point x="302" y="431" />
      <point x="296" y="426" type="qcurve" />
      <point x="188" y="346" type="line" />
      <point x="188" y="108" type="line" />
      <point x="191" y="-1" type="line" />
      <point x="191" y="-11" />
      <point x="155" y="-11" />
      <point x="116" y="4" />
    </contour>
  </outline>
</glyph>
<glyph name="Nacute" format="2">
  <unicode hex="0143" />
  <advance width="755" />
  <outline>
    <contour>
      <point x="109" y="656" type="line" />
      <point x="101" y="694" type="line" />
      <point x="101" y="708" />
      <point x="147" y="725" />
      <point x="169" y="725" />
      <point x="181" y="723" />
      <point x="186" y="715" type="qcurve" />
      <point x="212" y="668" />
      <point x="453" y="283" />
      <point x="580" y="106" type="qcurve" />
      <point x="580" y="603" type="line" />
      <point x="575" y="712" type="line" />
      <point x="575" y="722" />
      <point x="614" y="722" />
      <point x="652" y="707" />
      <point x="652" y="693" type="qcurve" />
      <point x="650" y="602" type="line" />
      <point x="650" y="89" type="line" />
      <point x="654" y="33" type="line" />
      <point x="654" y="23" />
      <point x="645" y="12" type="qcurve" />
      <point x="621" y="-14" />
      <point x="578" y="-13" />
      <point x="558" y="15" />
      <point x="532" y="52" type="qcurve" />
      <point x="335" y="328" />
      <point x="179" y="593" type="qcurve" />
      <point x="179" y="108" type="line" />
      <point x="182" y="-1" type="line" />
      <point x="182" y="-11" />
      <point x="145" y="-11" />
      <point x="106" y="4" />
      <point x="106" y="17" type="qcurve" />
      <point x="109" y="109" type="line" />
    </contour>
    <contour>
      <point x="492" y="836" type="qcurve" />
      <point x="442" y="818" />
      <point x="342" y="782" />
      <point x="301" y="759" />
      <point x="289" y="759" />
      <point x="279" y="769" />
      <point x="279" y="776" type="qcurve" />
      <point x="279" y="798" />
      <point x="432" y="900" type="qcurve" />
      <point x="434" y="901" />
      <point x="449" y="901" />
      <point x="463" y="891" type="qcurve" />
      <point x="499" y="866" />
      <point x="499" y="846" type="qcurve" />
      <point x="499" y="839" />
    </contour>
  </outline>
</glyph>
<glyph name="nacute" format="2">
  <unicode hex="0144" />
  <advance width="618" />
  <outline>
    <contour>
      <point x="245" y="591" type="qcurve" />
      <point x="227" y="591" />
      <point x="207" y="607" type="qcurve" />
      <point x="192" y="619" />
      <point x="191" y="633" type="qcurve" />
      <point x="191" y="635" />
      <point x="191" y="638" type="qcurve" />
      <point x="192" y="643" />
      <point x="198" y="647" type="qcurve" />
      <point x="368" y="787" type="line" />
      <point x="376" y="794" />
      <point x="384" y="795" type="qcurve" />
      <point x="394" y="795" />
      <point x="406" y="779" />
      <point x="406" y="773" type="qcurve" />
      <point x="406" y="766" />
      <point x="400" y="761" type="qcurve" />
      <point x="263" y="598" type="line" />
      <point x="257" y="591" />
    </contour>
    <contour>
      <point x="508" y="108" type="line" />
      <point x="511" y="-1" type="line" />
      <point x="511" y="-11" />
      <point x="475" y="-11" />
      <point x="438" y="4" />
      <point x="438" y="16" type="qcurve" />
      <point x="438" y="17" type="line" />
      <point x="439" y="25" />
      <point x="439" y="45" type="qcurve" />
      <point x="440" y="118" type="line" />
      <point x="440" y="300" type="line" />
      <point x="440" y="360" />
      <point x="408" y="433" />
      <point x="356" y="433" type="qcurve" />
      <point x="275" y="433" />
      <point x="166" y="315" />
      <point x="164" y="166" type="qcurve" />
      <point x="163" y="132" />
      <point x="162" y="108" type="qcurve" />
      <point x="162" y="91" type="line" />
      <point x="162" y="60" />
      <point x="165" y="-1" type="qcurve" />
      <point x="165" y="-11" />
      <point x="129" y="-11" />
      <point x="92" y="4" />
      <point x="92" y="17" type="qcurve" />
      <point x="94" y="118" type="line" />
      <point x="94" y="373" type="line" />
      <point x="91" y="482" type="line" />
      <point x="91" y="492" />
      <point x="127" y="493" />
      <point x="164" y="477" />
      <point x="164" y="464" type="qcurve" />
      <point x="164" y="450" type="line" />
      <point x="162" y="421" />
      <point x="162" y="385" type="qcurve" />
      <point x="195" y="439" />
      <point x="300" y="497" />
      <point x="352" y="497" type="qcurve" />
      <point x="446" y="497" />
      <point x="481" y="432" type="qcurve" />
      <point x="508" y="385" />
      <point x="508" y="304" type="qcurve" />
    </contour>
  </outline>
</glyph>
<glyph name="uni0146" format="2">
  <unicode hex="0146" />
  <advance width="602" />
  <outline>
    <contour>
      <point x="508" y="108" type="line" />
      <point x="511" y="-1" type="line" />
      <point x="511" y="-11" />
      <point x="475" y="-11" />
      <point x="438" y="4" />
      <point x="438" y="16" type="qcurve" />
      <point x="438" y="17" type="line" />
      <point x="439" y="25" />
      <point x="439" y="45" type="qcurve" />
      <point x="440" y="118" type="line" />
      <point x="440" y="300" type="line" />
      <point x="440" y="360" />
      <point x="408" y="433" />
      <point x="356" y="433" type="qcurve" />
      <point x="275" y="433" />
      <point x="166" y="315" />
      <point x="164" y="166" type="qcurve" />
      <point x="163" y="132" />
      <point x="162" y="108" type="qcurve" />
      <point x="162" y="91" type="line" />
      <point x="162" y="60" />
      <point x="165" y="-1" type="qcurve" />
      <point x="165" y="-11" />
      <point x="129" y="-11" />
      <point x="92" y="4" />
      <point x="92" y="17" type="qcurve" />
      <point x="94" y="118" type="line" />
      <point x="94" y="373" type="line" />
      <point x="91" y="482" type="line" />
      <point x="91" y="492" />
      <point x="127" y="493" />
      <point x="164" y="477" />
      <point x="164" y="464" type="qcurve" />
      <point x="164" y="450" type="line" />
      <point x="162" y="421" />
      <point x="162" y="385" type="qcurve" />
      <point x="195" y="439" />
      <point x="300" y="497" />
      <point x="352" y="497" type="qcurve" />
      <point x="446" y="497" />
      <point x="481" y="432" type="qcurve" />
      <point x="508" y="385" />
      <point x="508" y="304" type="qcurve" />
    </contour>
    <contour>
      <point x="251" y="-229" type="qcurve" />
      <point x="237" y="-229" />
      <point x="237" y="-215" type="qcurve" />
      <point x="237" y="-208" />
      <point x="243" y="-203" type="qcurve" />
      <point x="262" y="-190" />
      <point x="296" y="-148" />
      <point x="301" y="-130" type="qcurve" />
      <point x="299" y="-129" />
      <point x="280" y="-125" />
      <point x="275" y="-120" type="qcurve" />
      <point x="252" y="-98" />
      <point x="253" y="-52" />
      <point x="286" y="-28" />
      <point x="328" y="-28" />
      <point x="356" y="-65" />
      <point x="360" y="-98" type="qcurve" />
      <point x="360" y="-134" />
      <point x="301" y="-209" />
      <point x="259" y="-227" type="qcurve" />
      <point x="255" y="-229" />
    </contour>
  </outline>
</glyph>
